<?xml version="1.0" encoding="utf-8"?>
<!-- Generator: Adobe Illustrator 25.2.0, SVG Export Plug-In . SVG Version: 6.00 Build 0)  -->
<svg version="1.1" id="Layer_1" xmlns="http://www.w3.org/2000/svg" xmlns:xlink="http://www.w3.org/1999/xlink" x="0px" y="0px"
	 viewBox="0 0 1104 769" enable-background="new 0 0 1104 769" xml:space="preserve">
<g>
	<path fill="#061A4C" d="M1079.67,769.26h-1055c-13.53,0-24.5-10.97-24.5-24.5v-720c0-13.53,10.97-24.5,24.5-24.5h1055
		c13.53,0,24.5,10.97,24.5,24.5v720C1104.17,758.29,1093.2,769.26,1079.67,769.26z"/>
</g>
<g>
	<g>
		<path fill="#FFFFFF" d="M373.56,149.14h44.42L221.11,640.29h-44.42L373.56,149.14z"/>
	</g>
</g>
<path fill="#FFFFFF" d="M986.79,230.81H500.43c-2.48,0-4.49-2.01-4.49-4.49v-38.07c0-2.48,2.01-4.49,4.49-4.49h486.36
	c2.48,0,4.49,2.01,4.49,4.49v38.07C991.28,228.8,989.27,230.81,986.79,230.81z"/>
<path fill="#FFFFFF" d="M986.79,418.99H500.43c-2.48,0-4.49-2.01-4.49-4.49v-38.07c0-2.48,2.01-4.49,4.49-4.49h486.36
	c2.48,0,4.49,2.01,4.49,4.49v38.07C991.28,416.98,989.27,418.99,986.79,418.99z"/>
<path fill="#FFFFFF" d="M989.51,596.11H503.15c-2.48,0-4.49-2.01-4.49-4.49v-38.07c0-2.48,2.01-4.49,4.49-4.49h486.36
	c2.48,0,4.49,2.01,4.49,4.49v38.07C994,594.1,991.99,596.11,989.51,596.11z"/>
</svg>
