<?xml version="1.0" encoding="iso-8859-1"?>
<!-- Generator: Adobe Illustrator 21.0.0, SVG Export Plug-In . SVG Version: 6.00 Build 0)  -->
<svg xmlns="http://www.w3.org/2000/svg" xmlns:xlink="http://www.w3.org/1999/xlink" version="1.1" id="Capa_1" x="0px" y="0px" viewBox="0 0 512 512" style="enable-background:new 0 0 512 512;" xml:space="preserve" width="512" height="512">
<g>
	<path style="fill:#EFE2DD;" d="M466,370.699c0,6.301-50.099,140.4-122.401,140.4c-17.699,0-30.3-5.099-41.4-9.899   c-9.6-4.2-18.3-7.8-31.199-8.701c-1.8-0.3-3.6-0.3-5.7-0.3c-8.101,0-18.3,3.9-29.099,8.101c-14.702,5.4-31.501,11.7-50.402,11.7   H185.2C108.999,511.7,46,356,46,276.799c0-129.3,97.2-157.8,134.399-157.8c16.8,0,35.101,6.601,50.7,12.601   c11.1,3.9,22.8,8.099,29.101,8.099c2.399,0,6.299-1.199,10.8-2.699c2.999-1.201,6.599-2.401,9.901-3.9   c17.1-6.601,38.099-15,62.699-15c0,0,0,0,0.3,0c18.3,0,73.801,3.9,107.401,54l7.8,12.001l-11.4,8.399   C431.8,204.8,402.4,227,402.4,270.799c0,51.901,33.3,72.001,49.2,81.601C458.5,356.6,466,361.099,466,370.699z"/>
	<path style="fill:#FFF5F5;" d="M351.4,0c1.5,61.199-37.2,105.799-80.4,111.499c-4.799,0.901-9.901,1.201-15,0.901   c-2.999-20.7,3.3-41.7,15-59.7C289.6,23.599,322.599,0,351.4,0z"/>
	<path style="fill:#CDBFBA;" d="M271,111.499V52.7C289.6,23.599,322.599,0,351.4,0C352.899,61.199,314.2,105.799,271,111.499z"/>
	<path style="fill:#CDBFBA;" d="M466,370.699c0,6.301-50.099,140.4-122.401,140.4c-17.699,0-30.3-5.099-41.4-9.899   c-9.6-4.2-18.3-7.8-31.199-8.701V137c2.999-1.201,6.599-2.401,9.901-3.9c17.1-6.601,38.099-15,62.699-15c0,0,0,0,0.3,0   c18.3,0,73.801,3.9,107.401,54l7.8,12.001l-11.4,8.399C431.8,204.8,402.4,227,402.4,270.799c0,51.901,33.3,72.001,49.2,81.601   C458.5,356.6,466,361.099,466,370.699z"/>
</g>















</svg>
