<?xml version="1.0" encoding="iso-8859-1"?>
<!-- Generator: Adobe Illustrator 19.0.0, SVG Export Plug-In . SVG Version: 6.00 Build 0)  -->
<svg version="1.1" id="Capa_1" xmlns="http://www.w3.org/2000/svg" xmlns:xlink="http://www.w3.org/1999/xlink" x="0px" y="0px"
	 viewBox="0 0 512 512" style="enable-background:new 0 0 512 512;" xml:space="preserve">
<path style="fill:#F7F7F7;" d="M334.205,214.15c0-12.564-14.605-19.574-24.405-11.686C280.927,225.706,280.099,241,256.005,241
	c-24.105,0-24.666-15.089-53.794-38.536c-9.788-7.877-24.405-0.897-24.405,11.686c0,49.557-35.29,59.122-35.29,116.52
	c0,4.839,2.335,9.382,6.27,12.198c0.536,0.384,2.169,1.552,2.377,5.931c3.232,67.334,35.002,95.911,9.726,122.017
	c-7.122,7.357-4.933,19.555,4.313,23.971C188.117,505.726,221.214,512,256.005,512c34.815,0,67.913-6.275,90.807-17.216
	c9.234-4.412,11.435-16.608,4.309-23.968c-25.264-26.094,6.495-54.718,9.727-122.024c0.207-4.372,1.84-5.54,2.376-5.924
	c3.936-2.816,6.27-7.359,6.27-12.198C369.494,273.364,334.205,263.613,334.205,214.15z"/>
<path style="fill:#E0E0E0;" d="M334.205,214.15c0-12.564-14.605-19.574-24.405-11.686c-28.871,23.24-29.701,38.534-53.791,38.536
	v271c34.814,0,67.911-6.275,90.804-17.216c9.234-4.412,11.435-16.608,4.308-23.968c-25.264-26.094,6.495-54.718,9.727-122.024
	c0.207-4.372,1.84-5.54,2.376-5.924c3.936-2.816,6.271-7.359,6.271-12.198C369.494,273.364,334.205,263.613,334.205,214.15z"/>
<path style="fill:#294A4A;" d="M402.208,129.56C398.413,47.149,337.795,0,256.005,0c-81.802,0-142.408,47.16-146.203,129.562
	c-4.596,99.997-73.812,145.035-30.986,239.872c6.359,14.079,48.43,22.368,44.976-12.279c-1.313-13.199,18.47-18.976,24.967-14.306
	c9.901,7.123,23.757,0.027,23.757-12.178c0-47.031,35.29-57.097,35.29-116.52c0-4.527-2.045-8.813-5.564-11.661
	c-4.881-3.95-10.788-8.382-17.565-13.18c4.52-1.122,9.218-2.171,13.962-3.121c11.729-2.346,16.112-16.848,7.677-25.302
	c-5.791-5.805-9.248-15.639-9.248-26.306c0-14.426,7.689-30.56,17.979-30.56c10.29,0,17.979,16.134,17.979,30.56
	c0,6.881-1.423,13.397-4.061,18.799c-12.684,8.456-6.027,28.468,9.296,27.458c11.661-0.768,23.007-0.822,35.49,0
	c15.321,1.003,21.98-19.002,9.296-27.458c-2.638-5.402-4.06-11.918-4.06-18.799c0-14.426,7.689-30.56,17.979-30.56
	s17.979,16.134,17.979,30.56c0,10.667-3.457,20.501-9.248,26.306c-8.448,8.467-4.034,22.959,7.677,25.302
	c4.741,0.949,9.435,1.998,13.962,3.121c-6.772,4.794-12.682,9.229-17.565,13.18c-3.52,2.848-5.564,7.133-5.564,11.661
	c0,59.673,35.29,69.277,35.29,116.52c0,12.195,13.848,19.305,23.757,12.178c6.508-4.678,26.279,1.111,24.967,14.306
	c-3.459,34.706,38.666,26.25,44.976,12.279C476.035,274.564,406.805,229.602,402.208,129.56z"/>
<path style="fill:#1C2323;" d="M402.208,129.56C398.413,47.15,337.796,0.001,256.008,0v180.244c5.755,0,11.61,0.19,17.742,0.594
	c15.321,1.003,21.98-19.002,9.296-27.458c-2.638-5.402-4.061-11.918-4.061-18.799c0-14.426,7.689-30.56,17.979-30.56
	s17.979,16.134,17.979,30.56c0,10.667-3.457,20.501-9.248,26.306c-8.448,8.467-4.034,22.959,7.677,25.302
	c4.741,0.949,9.435,1.998,13.962,3.121c-6.772,4.794-12.682,9.229-17.565,13.18c-3.52,2.848-5.564,7.133-5.564,11.661
	c0,59.673,35.29,69.277,35.29,116.52c0,12.195,13.848,19.305,23.757,12.178c6.508-4.678,26.279,1.111,24.967,14.306
	c-3.459,34.706,38.666,26.25,44.976,12.279C476.035,274.564,406.805,229.602,402.208,129.56z"/>
<path style="fill:#F7F7F7;" d="M296.965,74.02c-17.542,0-32.6,11.313-40.96,28.596c-8.36-17.283-23.418-28.596-40.96-28.596
	c-26.116,0-47.979,26.105-47.979,60.56c0,18.71,6.564,36.021,18.01,47.494c3.531,3.539,8.608,5.101,13.553,4.117
	c13.892-2.744,25.463-4.418,41.45-5.473c4.61-0.303,8.824-2.714,11.422-6.535c1.678-2.469,3.176-5.104,4.505-7.862
	c1.329,2.758,2.827,5.393,4.505,7.862c2.598,3.821,6.811,6.232,11.422,6.535c16.083,1.061,27.356,2.731,41.45,5.473
	c4.942,0.984,10.022-0.577,13.553-4.117c11.445-11.473,18.01-28.784,18.01-47.494C344.944,99.867,322.894,74.02,296.965,74.02z"/>
<path style="fill:#E0E0E0;" d="M296.965,74.02c-17.54,0-32.596,11.311-40.957,28.59v63.717c1.328,2.756,2.825,5.389,4.502,7.855
	c2.598,3.821,6.812,6.232,11.422,6.535c16.083,1.061,27.356,2.731,41.45,5.473c4.942,0.984,10.022-0.577,13.553-4.117
	c11.445-11.473,18.01-28.784,18.01-47.494C344.944,99.867,322.894,74.02,296.965,74.02z"/>
<path style="fill:#FFD664;" d="M181.129,347.368c-1.587-33.384-36.895-45.099-64.702-29.054
	c-11.925,6.88-19.638,17.487-21.962,29.628c-12.596-4.743-34.283-11.062-51.554,6.211c-17.196,17.197-11.215,38.257-6.221,51.549
	C7.109,411.32-7.866,448.004,4.173,472.406c5.918,11.996,17.561,19.274,31.942,19.966c44.303,2.136,72.443,19.608,101.333,19.608
	c15.928,0,30.928-5.613,44.995-20.297C222.882,449.918,184.219,411.785,181.129,347.368z"/>
<path style="fill:#FF9842;" d="M475.32,405.702c4.994-13.292,10.975-34.352-6.221-51.549c-17.27-17.271-38.959-10.954-51.554-6.211
	c-2.323-12.142-10.037-22.748-21.962-29.628c-27.847-16.066-63.118-4.298-64.702,29.047c-3.12,65.003-42.313,102.816-0.316,145.334
	c14.532,14.537,29.132,19.285,44.002,19.285c28.892,0,57.023-17.471,101.328-19.607h-0.001c14.382-0.692,26.025-7.97,31.943-19.966
	C519.813,448.133,505.025,411.342,475.32,405.702z"/>
<path style="fill:#FFD664;" d="M334.598,160.202C282.223,147.2,231.579,146.756,177.42,160.2
	c-24.915,6.168-31.021,38.792-10.081,53.593c19.708,13.948,25.211,19.72,34.619,29.775C214.577,257.055,227.626,271,256.005,271
	s41.428-13.945,54.047-27.432c9.177-9.809,14.728-15.697,34.619-29.775C365.612,198.98,359.501,166.367,334.598,160.202z"/>
<path style="fill:#FF9842;" d="M334.598,160.202c-26.412-6.557-52.385-9.915-78.59-9.914V271
	c28.377-0.001,41.426-13.946,54.044-27.432c9.177-9.809,14.728-15.697,34.619-29.775
	C365.612,198.98,359.501,166.367,334.598,160.202z"/>
<circle style="fill:#1C2323;" cx="299.16" cy="122.81" r="15.745"/>
<circle style="fill:#294A4A;" cx="212.84" cy="122.81" r="15.745"/>
<g>
</g>
<g>
</g>
<g>
</g>
<g>
</g>
<g>
</g>
<g>
</g>
<g>
</g>
<g>
</g>
<g>
</g>
<g>
</g>
<g>
</g>
<g>
</g>
<g>
</g>
<g>
</g>
<g>
</g>
</svg>
