<?xml version="1.0" encoding="iso-8859-1"?>
<!-- Generator: Adobe Illustrator 19.0.0, SVG Export Plug-In . SVG Version: 6.00 Build 0)  -->
<svg version="1.1" id="Capa_1" xmlns="http://www.w3.org/2000/svg" xmlns:xlink="http://www.w3.org/1999/xlink" x="0px" y="0px"
	 viewBox="0 0 512 512" style="enable-background:new 0 0 512 512;" xml:space="preserve">
<circle style="fill:#35CCFF;" cx="256" cy="256" r="256"/>
<path style="fill:#00BAFF;" d="M302.035,78.453L103.938,389.559l119.456,120.384C234.071,511.3,244.954,512,256,512
	c131.031,0,239.052-98.448,254.173-225.408L302.035,78.453z"/>
<path style="fill:#333333;" d="M343.63,203.832c-20.848-18.711-29.607-47.033-25.339-74.719c0.601-3.896,0.824-7.917,0.632-12.024
	c-1.446-30.892-26.905-55.87-57.819-56.766c-33.757-0.978-61.429,26.095-61.429,59.632c0,5.028,0.622,9.911,1.793,14.575
	c6.805,27.099,0.09,55.757-19.069,76.094c-19.231,20.414-31.396,47.828-31.396,78.024c0,69.544,27.064,103.059,65.787,113.618
	c8.909-3.999,21.829-6.516,36.209-6.516c13.678,0,26.03,2.278,34.871,5.942c47.78-9.578,70.446-32.849,86.26-86.578
	C386.761,272.2,367.179,224.966,343.63,203.832z"/>
<path d="M343.63,203.832c-20.848-18.711-29.607-47.033-25.339-74.719c0.601-3.896,0.824-7.917,0.632-12.024
	c-1.446-30.892-26.905-55.87-57.819-56.766c-2.747-0.08-5.449,0.045-8.104,0.326V395.75c15.921,0,30.055,3.083,38.933,7.85
	c45.206-7.048,66.827-36.262,82.197-88.486C386.761,272.2,367.179,224.966,343.63,203.832z"/>
<path style="fill:#FFFFFF;" d="M176.289,302.745c0-45.34,36.325-150.337,81.134-150.337s81.134,105.528,81.134,150.337
	s-36.325,81.134-81.134,81.134S176.289,347.554,176.289,302.745z"/>
<path style="fill:#C0C2C1;" d="M257.424,152.408c-1.484,0-2.959,0.123-4.424,0.347v230.999c1.465,0.079,2.939,0.125,4.424,0.125
	c44.809,0,81.134-36.325,81.134-81.134S302.233,152.408,257.424,152.408z"/>
<ellipse style="fill:#E6E6E6;" cx="227.5" cy="129.5" rx="13.363" ry="18.14"/>
<ellipse style="fill:#000100;" cx="227.5" cy="133.62" rx="6.627" ry="11.759"/>
<ellipse style="fill:#E6E6E6;" cx="275.08" cy="129.5" rx="13.363" ry="18.14"/>
<ellipse style="fill:#000100;" cx="275.08" cy="133.62" rx="6.627" ry="11.759"/>
<path style="fill:#FE9A0F;" d="M292.98,160.521c4.364,9.307-28.874,26.965-40.448,26.965c-14.437,0-44.586-21.338-40.448-26.965
	c7.721-10.5,24.579-27.442,38.419-27.442C260.474,133.079,290.014,154.197,292.98,160.521z"/>
<path style="fill:#E2810C;" d="M292.979,160.521c-2.749-5.861-28.312-24.418-39.979-27.105v54.049
	C264.962,187.025,297.288,169.709,292.979,160.521z"/>
<path style="fill:#DD7F10;" d="M343.568,305.75c5.898,11.393,14.67,22.153,25.984,24.644c8.344,1.837,14.655,8.937,15.586,17.43
	c0.129,1.179,0.304,2.361,0.527,3.546c1.441,7.679,4.702,14.555,9.252,20.267c6.831,8.576,1.907,21.367-8.865,23.408l-85.065,16.121
	c-18.529,3.512-32.467-16.577-22.691-32.704l46.968-73.639C329.66,297.929,339.81,298.488,343.568,305.75z"/>
<path style="fill:#AE4E32;" d="M252.394,182.211c-12.088,0-24.417-5.908-36.711-17.607l4.136-4.347
	c12.257,11.662,24.291,16.972,35.759,15.79c15.831-1.635,25.361-15.185,25.455-15.321l4.938,3.41
	c-0.45,0.651-11.226,15.964-29.776,17.879C254.93,182.146,253.662,182.211,252.394,182.211z"/>
<path style="fill:#9E402B;" d="M255.577,176.047c-0.855,0.088-1.715,0.128-2.577,0.144v6.004c1.066-0.018,2.131-0.07,3.192-0.18
	c18.551-1.915,29.326-17.229,29.776-17.879l-4.938-3.41C280.938,160.862,271.407,174.412,255.577,176.047z"/>
<circle cx="355.14" cy="318.86" r="27.25"/>
<path style="fill:#333333;" d="M171,289c0,0,29.119,35.5,49.869,43.5S211,363.727,183,346.113C155,328.5,171,289,171,289z"/>
<path style="fill:#FE9B0E;" d="M155.35,305.75c-5.898,11.393-14.67,22.153-25.984,24.644c-8.344,1.837-14.655,8.937-15.586,17.43
	c-0.129,1.179-0.304,2.361-0.526,3.546c-1.441,7.679-4.702,14.555-9.252,20.267c-6.831,8.576-1.907,21.367,8.865,23.408
	l85.065,16.121c18.529,3.512,32.467-16.577,22.691-32.704l-46.968-73.639C169.258,297.929,159.108,298.488,155.35,305.75z"/>
<g>
</g>
<g>
</g>
<g>
</g>
<g>
</g>
<g>
</g>
<g>
</g>
<g>
</g>
<g>
</g>
<g>
</g>
<g>
</g>
<g>
</g>
<g>
</g>
<g>
</g>
<g>
</g>
<g>
</g>
</svg>
