<svg id="icons" enable-background="new 0 0 64 64" height="512" viewBox="0 0 64 64" width="512" xmlns="http://www.w3.org/2000/svg"><path d="m3 4.005v4 48h38v-2-16-8-16-6-4z" fill="#5d9cec"/><path d="m3 56.005h38v.99c0 1.1-.9 2-2 2h-34c-1.1 0-2-.9-2-2z" fill="#656d78"/><path d="m5 58.995h34c1.1 0 2-.9 2-2v4c0 1.1-.9 2-2 2h-34c-1.1 0-2-.9-2-2v-4c0 1.1.9 2 2 2z" fill="#545c66"/><path d="m5 1.005h34c1.1 0 2 .9 2 2v1h-38v-1c0-1.1.9-2 2-2z" fill="#656d78"/><path d="m59.48 26.345c.979 2.36 1.52 4.95 1.52 7.66s-.54 5.3-1.52 7.65l-14.78-6.12c.189-.471.3-.99.3-1.53s-.11-1.06-.3-1.53z" fill="#e6e9ed"/><path d="m44.7 32.475c.189.471.3.99.3 1.53s-.11 1.06-.3 1.53c-.61 1.449-2.03 2.47-3.7 2.47v-8c1.67 0 3.09 1.019 3.7 2.47z" fill="#4a89dc"/><path d="m59.48 26.345-14.78 6.13c-.61-1.45-2.03-2.47-3.7-2.47v-16c8.33 0 15.47 5.09 18.48 12.34z" fill="#ccd1d9"/><path d="m44.7 35.535 14.78 6.12c-3 7.26-10.141 12.35-18.48 12.35v-16c1.67 0 3.09-1.021 3.7-2.47z" fill="#ccd1d9"/><path d="m18.027 49.005c-.553 0-1.005-.447-1.005-1s.442-1 .994-1h.011c.552 0 1 .447 1 1s-.448 1-1 1z" fill="#4a89dc"/><path d="m22.027 49.005c-.553 0-1.005-.447-1.005-1s.442-1 .994-1h.011c.552 0 1 .447 1 1s-.448 1-1 1z" fill="#4a89dc"/><path d="m26.027 49.005c-.553 0-1.005-.447-1.005-1s.442-1 .994-1h.011c.552 0 1 .447 1 1s-.448 1-1 1z" fill="#4a89dc"/><path d="m34.001 35.996h-23.998c-.553 0-1-.447-1-1s.447-1 1-1h23.998c.553 0 1 .447 1 1s-.447 1-1 1z" fill="#4a89dc"/><path d="m34.001 38.996h-23.998c-.553 0-1-.447-1-1s.447-1 1-1h23.998c.553 0 1 .447 1 1s-.447 1-1 1z" fill="#4a89dc"/><path d="m28.002 41.996h-12c-.553 0-1-.447-1-1s.447-1 1-1h12c.553 0 1 .447 1 1s-.447 1-1 1z" fill="#4a89dc"/><g fill="#e6e9ed"><path d="m20 18.001c-.553 0-1-.447-1-1 0-1.103-.897-2-2-2s-2 .897-2 2c0 .553-.447 1-1 1s-1-.447-1-1c0-2.206 1.794-4 4-4s4 1.794 4 4c0 .553-.447 1-1 1z"/><path d="m17 29.003c-2.206 0-4-1.794-4-4 0-.553.447-1 1-1s1 .447 1 1c0 1.103.897 2 2 2s2-.897 2-2c0-.553.447-1 1-1s1 .447 1 1c0 2.206-1.794 4-4 4z"/><path d="m30 18.001c-.553 0-1-.447-1-1 0-1.103-.897-2-2-2s-2 .897-2 2c0 .553-.447 1-1 1s-1-.447-1-1c0-2.206 1.794-4 4-4s4 1.794 4 4c0 .553-.447 1-1 1z"/><path d="m27 29.003c-2.206 0-4-1.794-4-4 0-.553.447-1 1-1s1 .447 1 1c0 1.103.897 2 2 2s2-.897 2-2c0-.553.447-1 1-1s1 .447 1 1c0 2.206-1.794 4-4 4z"/><path d="m14 26.003c-.553 0-1-.447-1-1v-8.002c0-.553.447-1 1-1s1 .447 1 1v8.002c0 .553-.447 1-1 1z"/><path d="m20 26.003c-.553 0-1-.447-1-1v-8.002c0-.553.447-1 1-1s1 .447 1 1v8.002c0 .553-.447 1-1 1z"/><path d="m30 26.003c-.553 0-1-.447-1-1 0-1.209-1.733-2.783-3.126-4.049-1.542-1.401-2.874-2.611-2.874-3.953 0-.553.447-1 1-1s1 .447 1 1c0 .456 1.39 1.719 2.22 2.473 1.771 1.61 3.78 3.436 3.78 5.529 0 .553-.447 1-1 1z"/></g></svg>