<?xml version="1.0" encoding="iso-8859-1"?>
<!-- Generator: Adobe Illustrator 21.0.0, SVG Export Plug-In . SVG Version: 6.00 Build 0)  -->
<svg xmlns="http://www.w3.org/2000/svg" xmlns:xlink="http://www.w3.org/1999/xlink" version="1.1" id="Capa_1" x="0px" y="0px" viewBox="0 0 512 512" style="enable-background:new 0 0 512 512;" xml:space="preserve" width="512" height="512">
<g>
	<path style="fill:#FF637B;" d="M211,51.422v189.6H0v-150c0-7.5,5.698-13.801,13.198-15L106,64.622L211,51.422z"/>
	<path style="fill:#25D9F8;" d="M211,271.023v189.6l-105-13.2l-92.802-11.4c-7.5-1.201-13.198-7.5-13.198-15v-150H211z"/>
	<path style="fill:#FDBF00;" d="M512,271.023v210c0,4.2-1.802,8.399-5.098,11.4c-2.703,2.399-6.302,3.6-9.902,3.6h-1.802   L376,481.323l-135-16.8v-193.5H512z"/>
	<path style="fill:#7FE881;" d="M512,31.023v210H241v-193.2l135-17.1l119.198-14.7c4.204-0.3,8.401,0.899,11.704,3.6   C510.198,22.622,512,26.822,512,31.023z"/>
	<polygon style="fill:#E63950;" points="211,51.422 211,241.023 106,241.023 106,64.622  "/>
	<polygon style="fill:#00C0F1;" points="106,271.023 211,271.023 211,460.623 106,447.423  "/>
	<path style="fill:#5BC980;" d="M512,31.023v210H376v-210.3l119.198-14.7c4.204-0.3,8.401,0.899,11.704,3.6   C510.198,22.622,512,26.822,512,31.023z"/>
	<path style="fill:#FF9100;" d="M376,271.023h136v210c0,4.2-1.802,8.399-5.098,11.4c-2.703,2.399-6.302,3.6-9.902,3.6h-1.802   L376,481.323V271.023z"/>
</g>















</svg>
