<svg id="Layer_1" data-name="Layer 1" xmlns="http://www.w3.org/2000/svg" viewBox="0 0 512 490.68"><defs><style>.cls-1{fill:#ffce54;}.cls-2{fill:#4d6632;}.cls-3{fill:#7d8b9e;}.cls-4{fill:#41572a;}.cls-5{fill:#ccd1d9;}.cls-6{fill:#e6e9ed;}.cls-7{fill:#434a54;}</style></defs><g id="cpu"><path class="cls-1" d="M512,42.66A10.67,10.67,0,1,1,501.34,32,10.67,10.67,0,0,1,512,42.66Z" transform="translate(0 -10.66)"/><path class="cls-1" d="M512,85.33a10.67,10.67,0,1,1-10.66-10.67A10.67,10.67,0,0,1,512,85.33Z" transform="translate(0 -10.66)"/><path class="cls-1" d="M512,128a10.67,10.67,0,1,1-10.66-10.67A10.66,10.66,0,0,1,512,128Z" transform="translate(0 -10.66)"/><path class="cls-1" d="M512,170.66A10.67,10.67,0,1,1,501.34,160,10.67,10.67,0,0,1,512,170.66Z" transform="translate(0 -10.66)"/><path class="cls-1" d="M512,213.33a10.67,10.67,0,1,1-10.66-10.67A10.67,10.67,0,0,1,512,213.33Z" transform="translate(0 -10.66)"/><path class="cls-1" d="M512,256a10.67,10.67,0,1,1-10.66-10.67A10.66,10.66,0,0,1,512,256Z" transform="translate(0 -10.66)"/><path class="cls-1" d="M512,298.65A10.67,10.67,0,1,1,501.34,288,10.68,10.68,0,0,1,512,298.65Z" transform="translate(0 -10.66)"/><path class="cls-1" d="M512,341.34a10.67,10.67,0,1,1-10.66-10.69A10.68,10.68,0,0,1,512,341.34Z" transform="translate(0 -10.66)"/><path class="cls-1" d="M512,384a10.67,10.67,0,1,1-10.66-10.66A10.65,10.65,0,0,1,512,384Z" transform="translate(0 -10.66)"/><path class="cls-1" d="M512,426.65A10.67,10.67,0,1,1,501.34,416,10.68,10.68,0,0,1,512,426.65Z" transform="translate(0 -10.66)"/><path class="cls-1" d="M512,469.34a10.67,10.67,0,1,1-10.66-10.69A10.68,10.68,0,0,1,512,469.34Z" transform="translate(0 -10.66)"/><path class="cls-1" d="M469.34,501.34A10.67,10.67,0,1,1,480,490.65,10.68,10.68,0,0,1,469.34,501.34Z" transform="translate(0 -10.66)"/><path class="cls-1" d="M426.66,501.34a10.67,10.67,0,1,1,10.68-10.69A10.68,10.68,0,0,1,426.66,501.34Z" transform="translate(0 -10.66)"/><path class="cls-1" d="M384,501.34a10.67,10.67,0,1,1,10.66-10.69A10.67,10.67,0,0,1,384,501.34Z" transform="translate(0 -10.66)"/><path class="cls-1" d="M341.34,501.34A10.67,10.67,0,1,1,352,490.65,10.68,10.68,0,0,1,341.34,501.34Z" transform="translate(0 -10.66)"/><path class="cls-1" d="M298.66,501.34a10.67,10.67,0,1,1,10.68-10.69A10.68,10.68,0,0,1,298.66,501.34Z" transform="translate(0 -10.66)"/><path class="cls-1" d="M256,501.34a10.67,10.67,0,1,1,10.66-10.69A10.67,10.67,0,0,1,256,501.34Z" transform="translate(0 -10.66)"/><path class="cls-1" d="M213.34,501.34A10.67,10.67,0,1,1,224,490.65,10.68,10.68,0,0,1,213.34,501.34Z" transform="translate(0 -10.66)"/><path class="cls-1" d="M170.66,501.34a10.67,10.67,0,1,1,10.68-10.69A10.67,10.67,0,0,1,170.66,501.34Z" transform="translate(0 -10.66)"/><path class="cls-1" d="M128,501.34a10.67,10.67,0,1,1,10.66-10.69A10.67,10.67,0,0,1,128,501.34Z" transform="translate(0 -10.66)"/><path class="cls-1" d="M85.34,501.34A10.67,10.67,0,1,1,96,490.65,10.68,10.68,0,0,1,85.34,501.34Z" transform="translate(0 -10.66)"/><path class="cls-1" d="M42.66,501.34a10.67,10.67,0,1,1,10.68-10.69A10.67,10.67,0,0,1,42.66,501.34Z" transform="translate(0 -10.66)"/><path class="cls-1" d="M469.34,32A10.67,10.67,0,1,1,480,21.33,10.66,10.66,0,0,1,469.34,32Z" transform="translate(0 -10.66)"/><path class="cls-1" d="M426.69,32a10.67,10.67,0,1,1,10.65-10.67A10.68,10.68,0,0,1,426.69,32Z" transform="translate(0 -10.66)"/><path class="cls-1" d="M384,32a10.67,10.67,0,1,1,10.69-10.67A10.67,10.67,0,0,1,384,32Z" transform="translate(0 -10.66)"/><path class="cls-1" d="M341.34,32A10.67,10.67,0,1,1,352,21.33,10.66,10.66,0,0,1,341.34,32Z" transform="translate(0 -10.66)"/><path class="cls-1" d="M298.69,32a10.67,10.67,0,1,1,10.65-10.67A10.66,10.66,0,0,1,298.69,32Z" transform="translate(0 -10.66)"/><path class="cls-1" d="M256,32a10.67,10.67,0,1,1,10.66-10.67A10.68,10.68,0,0,1,256,32Z" transform="translate(0 -10.66)"/><path class="cls-1" d="M213.34,32A10.67,10.67,0,1,1,224,21.33,10.67,10.67,0,0,1,213.34,32Z" transform="translate(0 -10.66)"/><path class="cls-1" d="M170.68,32a10.67,10.67,0,1,1,10.66-10.67A10.67,10.67,0,0,1,170.68,32Z" transform="translate(0 -10.66)"/><path class="cls-1" d="M128,32a10.67,10.67,0,1,1,10.67-10.67A10.67,10.67,0,0,1,128,32Z" transform="translate(0 -10.66)"/><path class="cls-1" d="M85.34,32A10.67,10.67,0,1,1,96,21.33,10.67,10.67,0,0,1,85.34,32Z" transform="translate(0 -10.66)"/><path class="cls-1" d="M42.68,32A10.67,10.67,0,1,1,53.34,21.33,10.67,10.67,0,0,1,42.68,32Z" transform="translate(0 -10.66)"/><path class="cls-1" d="M21.34,42.66A10.67,10.67,0,1,1,10.66,32,10.68,10.68,0,0,1,21.34,42.66Z" transform="translate(0 -10.66)"/><path class="cls-1" d="M21.34,85.33A10.67,10.67,0,1,1,10.66,74.66,10.68,10.68,0,0,1,21.34,85.33Z" transform="translate(0 -10.66)"/><path class="cls-1" d="M21.34,128a10.67,10.67,0,1,1-10.68-10.67A10.67,10.67,0,0,1,21.34,128Z" transform="translate(0 -10.66)"/><path class="cls-1" d="M21.34,170.66A10.67,10.67,0,1,1,10.66,160,10.68,10.68,0,0,1,21.34,170.66Z" transform="translate(0 -10.66)"/><path class="cls-1" d="M21.34,213.33a10.67,10.67,0,1,1-10.68-10.67A10.68,10.68,0,0,1,21.34,213.33Z" transform="translate(0 -10.66)"/><path class="cls-1" d="M21.34,256a10.67,10.67,0,1,1-10.68-10.67A10.67,10.67,0,0,1,21.34,256Z" transform="translate(0 -10.66)"/><path class="cls-1" d="M21.34,298.65A10.67,10.67,0,1,1,10.66,288,10.68,10.68,0,0,1,21.34,298.65Z" transform="translate(0 -10.66)"/><path class="cls-1" d="M21.34,341.34a10.67,10.67,0,1,1-10.68-10.69A10.68,10.68,0,0,1,21.34,341.34Z" transform="translate(0 -10.66)"/><path class="cls-1" d="M21.34,384a10.67,10.67,0,1,1-10.68-10.66A10.66,10.66,0,0,1,21.34,384Z" transform="translate(0 -10.66)"/><path class="cls-1" d="M21.34,426.65A10.67,10.67,0,1,1,10.66,416,10.68,10.68,0,0,1,21.34,426.65Z" transform="translate(0 -10.66)"/><path class="cls-1" d="M21.34,469.34a10.67,10.67,0,1,1-10.68-10.69A10.68,10.68,0,0,1,21.34,469.34Z" transform="translate(0 -10.66)"/><rect class="cls-2" x="21.34" y="21.34" width="469.32" height="448"/><polygon class="cls-3" points="21.34 415.99 21.34 469.34 51.11 469.34 82.21 461.81 28.88 408.46 21.34 415.99"/><path class="cls-4" d="M10.66,21.33V490.65H501.34V21.33ZM480,469.34H32V42.66H480Z" transform="translate(0 -10.66)"/><path class="cls-5" d="M448,170.66V85.33A21.34,21.34,0,0,0,426.66,64H85.36A21.33,21.33,0,0,0,64,85.33v85.33L53.34,192V320L64,341.34v85.31A21.35,21.35,0,0,0,85.36,448h96l21.33-10.66H320L341.34,448h85.32A21.36,21.36,0,0,0,448,426.65V341.34L458.69,320V192Z" transform="translate(0 -10.66)"/><path class="cls-4" d="M490.66,117.33A10.66,10.66,0,1,1,480,106.66,10.67,10.67,0,0,1,490.66,117.33Z" transform="translate(0 -10.66)"/><path class="cls-4" d="M42.66,117.33A10.66,10.66,0,1,1,32,106.66,10.67,10.67,0,0,1,42.66,117.33Z" transform="translate(0 -10.66)"/><path class="cls-4" d="M224,458.65A10.67,10.67,0,1,1,213.34,448,10.67,10.67,0,0,1,224,458.65Z" transform="translate(0 -10.66)"/><path class="cls-4" d="M266.66,458.65A10.66,10.66,0,1,1,256,448,10.67,10.67,0,0,1,266.66,458.65Z" transform="translate(0 -10.66)"/><path class="cls-4" d="M309.34,458.65A10.67,10.67,0,1,1,298.66,448,10.68,10.68,0,0,1,309.34,458.65Z" transform="translate(0 -10.66)"/><rect class="cls-6" x="106.66" y="96" width="298.68" height="298.68"/><path class="cls-7" d="M187.38,285.71c-10.94,0-17.89-8.93-17.89-22.93,0-11.34,5-23,18.09-23,8,0,13.51,4.37,15,11.8h14.56c-1.14-14-13-24.28-29.32-24.28-20.75,0-33.32,15.71-33.32,35.42,0,21.41,13.05,35.6,32.75,35.6,18.56,0,28.84-11.22,30.37-27.79H202.91C201.66,280.39,196.34,285.71,187.38,285.71Z" transform="translate(0 -10.66)"/><path class="cls-7" d="M262,228.89H232.73v67.78h14.76V272.29h15.24c13.61,0,24.08-6.85,24.08-21.61C286.81,235.74,276.62,228.89,262,228.89Zm-1.23,31.69H247.49V241.07h13.33c6.57,0,11.52,2.57,11.52,9.8C272.34,258.39,267.39,260.58,260.73,260.58Z" transform="translate(0 -10.66)"/><path class="cls-7" d="M342.72,228.89v40.55c0,10-2.38,16.27-13.81,16.27-11.61,0-14.57-5.9-14.57-16.27V228.89H299.5v40.55c0,19.32,9,28.56,29.22,28.56,19.81,0,28.84-9,28.84-28.37V228.89Z" transform="translate(0 -10.66)"/></g></svg>