<svg height="469pt" viewBox="0 0 469.33334 469" width="469pt" xmlns="http://www.w3.org/2000/svg"><g fill="#5e7599"><path d="m0 149.5c0-11.78125 9.550781-21.332031 21.332031-21.332031h85.335938c11.78125 0 21.332031 9.550781 21.332031 21.332031s-9.550781 21.332031-21.332031 21.332031h-85.335938c-11.78125 0-21.332031-9.550781-21.332031-21.332031zm0 0"/><path d="m234.667969.167969c11.78125 0 21.332031 9.550781 21.332031 21.332031v85.332031c0 11.785157-9.550781 21.335938-21.332031 21.335938-11.785157 0-21.335938-9.550781-21.335938-21.335938v-85.332031c0-11.78125 9.550781-21.332031 21.335938-21.332031zm0 0"/><path d="m149.332031.167969c11.785157 0 21.335938 9.550781 21.335938 21.332031v85.332031c0 11.785157-9.550781 21.335938-21.335938 21.335938-11.78125 0-21.332031-9.550781-21.332031-21.335938v-85.332031c0-11.78125 9.550781-21.332031 21.332031-21.332031zm0 0"/><path d="m320 .167969c11.78125 0 21.332031 9.550781 21.332031 21.332031v85.332031c0 11.785157-9.550781 21.335938-21.332031 21.335938s-21.332031-9.550781-21.332031-21.335938v-85.332031c0-11.78125 9.550781-21.332031 21.332031-21.332031zm0 0"/><path d="m149.332031 341.5c11.785157 0 21.335938 9.550781 21.335938 21.332031v85.335938c0 11.78125-9.550781 21.332031-21.335938 21.332031-11.78125 0-21.332031-9.550781-21.332031-21.332031v-85.335938c0-11.78125 9.550781-21.332031 21.332031-21.332031zm0 0"/><path d="m320 341.5c11.78125 0 21.332031 9.550781 21.332031 21.332031v85.335938c0 11.78125-9.550781 21.332031-21.332031 21.332031s-21.332031-9.550781-21.332031-21.332031v-85.335938c0-11.78125 9.550781-21.332031 21.332031-21.332031zm0 0"/><path d="m234.667969 341.5c11.78125 0 21.332031 9.550781 21.332031 21.332031v85.335938c0 11.78125-9.550781 21.332031-21.332031 21.332031-11.785157 0-21.335938-9.550781-21.335938-21.332031v-85.335938c0-11.78125 9.550781-21.332031 21.335938-21.332031zm0 0"/><path d="m0 234.832031c0-11.78125 9.550781-21.332031 21.332031-21.332031h85.335938c11.78125 0 21.332031 9.550781 21.332031 21.332031 0 11.785157-9.550781 21.335938-21.332031 21.335938h-85.335938c-11.78125 0-21.332031-9.550781-21.332031-21.335938zm0 0"/><path d="m341.332031 234.832031c0-11.78125 9.550781-21.332031 21.335938-21.332031h85.332031c11.78125 0 21.332031 9.550781 21.332031 21.332031 0 11.785157-9.550781 21.335938-21.332031 21.335938h-85.332031c-11.785157 0-21.335938-9.550781-21.335938-21.335938zm0 0"/><path d="m341.332031 320.167969c0-11.785157 9.550781-21.335938 21.335938-21.335938h85.332031c11.78125 0 21.332031 9.550781 21.332031 21.335938 0 11.78125-9.550781 21.332031-21.332031 21.332031h-85.332031c-11.785157 0-21.335938-9.550781-21.335938-21.332031zm0 0"/><path d="m341.332031 149.5c0-11.78125 9.550781-21.332031 21.335938-21.332031h85.332031c11.78125 0 21.332031 9.550781 21.332031 21.332031s-9.550781 21.332031-21.332031 21.332031h-85.332031c-11.785157 0-21.335938-9.550781-21.335938-21.332031zm0 0"/></g><path d="m362.667969 128.167969h21.332031c11.78125 0 21.332031 9.550781 21.332031 21.332031s-9.550781 21.332031-21.332031 21.332031h-21.332031c-11.785157 0-21.335938-9.550781-21.335938-21.332031s9.550781-21.332031 21.335938-21.332031zm0 0" fill="#435e88"/><path d="m362.667969 213.5h21.332031c11.78125 0 21.332031 9.550781 21.332031 21.332031 0 11.785157-9.550781 21.335938-21.332031 21.335938h-21.332031c-11.785157 0-21.335938-9.550781-21.335938-21.335938 0-11.78125 9.550781-21.332031 21.335938-21.332031zm0 0" fill="#435e88"/><path d="m362.667969 298.832031h21.332031c11.78125 0 21.332031 9.550781 21.332031 21.335938 0 11.78125-9.550781 21.332031-21.332031 21.332031h-21.332031c-11.785157 0-21.335938-9.550781-21.335938-21.332031 0-11.785157 9.550781-21.335938 21.335938-21.335938zm0 0" fill="#435e88"/><path d="m128 106.832031v-21.332031c0-11.78125 9.550781-21.332031 21.332031-21.332031 11.785157 0 21.335938 9.550781 21.335938 21.332031v21.332031c0 11.785157-9.550781 21.335938-21.335938 21.335938-11.78125 0-21.332031-9.550781-21.332031-21.335938zm0 0" fill="#435e88"/><path d="m213.332031 106.832031v-21.332031c0-11.78125 9.550781-21.332031 21.335938-21.332031 11.78125 0 21.332031 9.550781 21.332031 21.332031v21.332031c0 11.785157-9.550781 21.335938-21.332031 21.335938-11.785157 0-21.335938-9.550781-21.335938-21.335938zm0 0" fill="#435e88"/><path d="m298.667969 106.832031v-21.332031c0-11.78125 9.550781-21.332031 21.332031-21.332031s21.332031 9.550781 21.332031 21.332031v21.332031c0 11.785157-9.550781 21.335938-21.332031 21.335938s-21.332031-9.550781-21.332031-21.335938zm0 0" fill="#435e88"/><path d="m128 384.167969v-21.335938c0-11.78125 9.550781-21.332031 21.332031-21.332031 11.785157 0 21.335938 9.550781 21.335938 21.332031v21.335938c0 11.78125-9.550781 21.332031-21.335938 21.332031-11.78125 0-21.332031-9.550781-21.332031-21.332031zm0 0" fill="#435e88"/><path d="m213.332031 384.167969v-21.335938c0-11.78125 9.550781-21.332031 21.335938-21.332031 11.78125 0 21.332031 9.550781 21.332031 21.332031v21.335938c0 11.78125-9.550781 21.332031-21.332031 21.332031-11.785157 0-21.335938-9.550781-21.335938-21.332031zm0 0" fill="#435e88"/><path d="m298.667969 384.167969v-21.335938c0-11.78125 9.550781-21.332031 21.332031-21.332031s21.332031 9.550781 21.332031 21.332031v21.335938c0 11.78125-9.550781 21.332031-21.332031 21.332031s-21.332031-9.550781-21.332031-21.332031zm0 0" fill="#435e88"/><path d="m0 320.167969c0-11.785157 9.550781-21.335938 21.332031-21.335938h85.335938c11.78125 0 21.332031 9.550781 21.332031 21.335938 0 11.78125-9.550781 21.332031-21.332031 21.332031h-85.335938c-11.78125 0-21.332031-9.550781-21.332031-21.332031zm0 0" fill="#5e7599"/><path d="m85.332031 128.167969h21.335938c11.78125 0 21.332031 9.550781 21.332031 21.332031s-9.550781 21.332031-21.332031 21.332031h-21.335938c-11.78125 0-21.332031-9.550781-21.332031-21.332031s9.550781-21.332031 21.332031-21.332031zm0 0" fill="#435e88"/><path d="m85.332031 213.5h21.335938c11.78125 0 21.332031 9.550781 21.332031 21.332031 0 11.785157-9.550781 21.335938-21.332031 21.335938h-21.335938c-11.78125 0-21.332031-9.550781-21.332031-21.335938 0-11.78125 9.550781-21.332031 21.332031-21.332031zm0 0" fill="#435e88"/><path d="m85.332031 298.832031h21.335938c11.78125 0 21.332031 9.550781 21.332031 21.335938 0 11.78125-9.550781 21.332031-21.332031 21.332031h-21.335938c-11.78125 0-21.332031-9.550781-21.332031-21.332031 0-11.785157 9.550781-21.335938 21.332031-21.335938zm0 0" fill="#435e88"/><path d="m128 85.5h213.332031c23.566407 0 42.667969 19.101562 42.667969 42.667969v213.332031c0 23.5625-19.101562 42.667969-42.667969 42.667969h-213.332031c-23.5625 0-42.667969-19.105469-42.667969-42.667969v-213.332031c0-23.566407 19.105469-42.667969 42.667969-42.667969zm0 0" fill="#cdd4df"/><path d="m158.167969 234.832031c-16.660157 0-30.167969-13.507812-30.167969-30.167969v-46.328124c0-16.660157 13.507812-30.167969 30.167969-30.167969h46.328125c16.664062 0 30.171875 13.507812 30.171875 30.167969 0 8.003906-3.179688 15.675781-8.835938 21.332031l-46.328125 46.328125c-5.660156 5.660156-13.332031 8.835937-21.335937 8.835937zm0 0" fill="#e5e8ef"/><path d="m341.332031 384.167969h-213.332031c-23.554688-.027344-42.640625-19.113281-42.667969-42.667969 0-11.78125 9.550781-21.332031 21.335938-21.332031 11.78125 0 21.332031 9.550781 21.332031 21.332031h213.332031v-213.332031c-11.78125 0-21.332031-9.550781-21.332031-21.335938 0-11.78125 9.550781-21.332031 21.332031-21.332031 23.554688.027344 42.640625 19.113281 42.667969 42.667969v213.332031c-.027344 23.554688-19.113281 42.640625-42.667969 42.667969zm0 0" fill="#adb9ca"/></svg>