<svg id="Capa_1" data-name="Capa 1" xmlns="http://www.w3.org/2000/svg" viewBox="0 0 59 44.7"><defs><style>.cls-1{fill:#dffbff;}.cls-2{fill:#f3cc6d;}.cls-3{fill:#38454f;}.cls-4{fill:#546a79;}.cls-5{fill:#a6bdbb;}.cls-6{fill:#41572a;}.cls-7{fill:#6c797a;}.cls-8{fill:#283238;}.cls-9{fill:#cbd4d8;}.cls-10{fill:#839594;}</style></defs><path class="cls-1" d="M4,6.8H1a.94.94,0,0,0-1,1,.94.94,0,0,0,1,1H3v41a.94.94,0,0,0,1,1,.94.94,0,0,0,1-1V7.8A.94.94,0,0,0,4,6.8Z" transform="translate(0 -6.8)"/><rect class="cls-2" x="5" y="4.9" width="54" height="11.6"/><rect class="cls-3" x="4" y="5.7" width="55" height="32"/><circle class="cls-4" cx="7" cy="8.7" r="1"/><circle class="cls-4" cx="7" cy="34.7" r="1"/><circle class="cls-4" cx="56" cy="8.7" r="1"/><circle class="cls-4" cx="56" cy="34.7" r="1"/><rect class="cls-5" y="20.7" width="3" height="13"/><path class="cls-2" d="M3,26.5H1a1,1,0,0,1,0-2H3a1,1,0,0,1,0,2Z" transform="translate(0 -6.8)"/><path class="cls-2" d="M3,43.5H1a1,1,0,0,1,0-2H3a1,1,0,0,1,0,2Z" transform="translate(0 -6.8)"/><rect class="cls-5" y="8.7" width="3" height="4"/><rect class="cls-6" x="12" y="37.7" width="24" height="4"/><path class="cls-7" d="M24.4,38.7a14.53,14.53,0,0,1-3.3-8.4v-.1a9.7,9.7,0,0,1-.1-1.7,9.7,9.7,0,0,1,.1-1.7v-.1a14.82,14.82,0,0,1,3.3-8.4,17.89,17.89,0,0,1,2.7-2.8H17c-5,0-9,5.8-9,13s4,13,9,13H27.1A17.89,17.89,0,0,1,24.4,38.7Z" transform="translate(0 -6.8)"/><path class="cls-8" d="M34.8,41.5a14,14,0,0,1,0-26H45.1a14,14,0,0,1,0,26Z" transform="translate(0 -6.8)"/><path class="cls-4" d="M49.9,29.7a.69.69,0,0,0-.8-.8A7.59,7.59,0,0,1,43,28v.4a2.91,2.91,0,0,1-2,2.8s3.8,2.8,7,3.2C48.9,33.5,49.6,31.2,49.9,29.7Z" transform="translate(0 -6.8)"/><path class="cls-4" d="M30,27.3a.69.69,0,0,0,.8.8,7.59,7.59,0,0,1,6.1.9v-.4a2.91,2.91,0,0,1,2-2.8s-3.8-2.8-7-3.2C31,23.5,30.4,25.8,30,27.3Z" transform="translate(0 -6.8)"/><path class="cls-4" d="M34.3,36.8a.69.69,0,0,0,1.1-.4,7.68,7.68,0,0,1,3.5-5c-.1,0-.2-.1-.4-.1a2.89,2.89,0,0,1-1.6-3.1s-4.2,2.1-6,4.8A17.21,17.21,0,0,0,34.3,36.8Z" transform="translate(0 -6.8)"/><path class="cls-4" d="M45.6,20.2a.69.69,0,0,0-1.1.4,7.68,7.68,0,0,1-3.5,5c.1,0,.2.1.4.1A2.89,2.89,0,0,1,43,28.8s4.2-2.1,6-4.8A17.21,17.21,0,0,0,45.6,20.2Z" transform="translate(0 -6.8)"/><path class="cls-4" d="M44.2,37.6a.63.63,0,0,0,.2-1.1,7.58,7.58,0,0,1-2.5-5.6c-.1.1-.2.2-.3.2a2.84,2.84,0,0,1-3.4-.2s-.4,4.7,1,7.6A12.93,12.93,0,0,0,44.2,37.6Z" transform="translate(0 -6.8)"/><path class="cls-4" d="M35.7,19.4a.63.63,0,0,0-.2,1.1A7.58,7.58,0,0,1,38,26.1c.1-.1.2-.2.3-.2a2.84,2.84,0,0,1,3.4.2s.4-4.7-1-7.6A13.26,13.26,0,0,0,35.7,19.4Z" transform="translate(0 -6.8)"/><path class="cls-2" d="M15,46.5h0a.94.94,0,0,1,1,1v1H14v-1A.94.94,0,0,1,15,46.5Z" transform="translate(0 -6.8)"/><path class="cls-2" d="M18,46.5h0a.94.94,0,0,1,1,1v1H17v-1A.94.94,0,0,1,18,46.5Z" transform="translate(0 -6.8)"/><path class="cls-2" d="M21,46.5h0a.94.94,0,0,1,1,1v1H20v-1A.94.94,0,0,1,21,46.5Z" transform="translate(0 -6.8)"/><path class="cls-2" d="M24,46.5h0a.94.94,0,0,1,1,1v1H23v-1A.94.94,0,0,1,24,46.5Z" transform="translate(0 -6.8)"/><path class="cls-2" d="M27,46.5h0a.94.94,0,0,1,1,1v1H26v-1A.94.94,0,0,1,27,46.5Z" transform="translate(0 -6.8)"/><path class="cls-2" d="M30,46.5h0a.94.94,0,0,1,1,1v1H29v-1A.94.94,0,0,1,30,46.5Z" transform="translate(0 -6.8)"/><path class="cls-2" d="M33,46.5h0a.94.94,0,0,1,1,1v1H32v-1A.94.94,0,0,1,33,46.5Z" transform="translate(0 -6.8)"/><path class="cls-9" d="M4,7.5H1a.94.94,0,0,0-1,1,.94.94,0,0,0,1,1H3v41a.94.94,0,0,0,1,1,.94.94,0,0,0,1-1V8.5A.94.94,0,0,0,4,7.5Z" transform="translate(0 -6.8)"/><rect class="cls-10" y="21.7" width="3" height="12"/><rect class="cls-10" y="9.7" width="3" height="3"/><circle class="cls-9" cx="40" cy="21.7" r="3.2"/></svg>