<svg height="512" viewBox="0 0 42 58" width="512" xmlns="http://www.w3.org/2000/svg"><g id="Page-1" fill="none" fill-rule="evenodd"><g id="011---Hardrive" fill-rule="nonzero"><rect id="Rectangle-path" fill="#35495e" height="58" rx="3" width="42"/><path id="Shape" d="m38 38.41v9.59c-.0032948 1.1032019-.8967981 1.9967052-2 2h-11c-1.1032019-.0032948-1.9967052-.8967981-2-2v-4.36c.0044154-.9661006.6987961-1.7909407 1.65-1.96.19-.03.38-.07.57-.11l1.72 2.69c.1355856.2040985.2859909.3979542.45.58 1.4414632 1.5049759 3.8300241 1.5564632 5.335.115s1.5564632-3.8300241.115-5.335l-.76-.79c.9229744-.5730699 1.7990535-1.2184259 2.62-1.93.5919095-.5062986 1.4239154-.622895 2.1321949-.2988035.7082795.3240916 1.1639699 1.0299066 1.1678051 1.8088035z" fill="#7f8c8d"/><path id="Shape" d="m38 21c.0048976 6.1818253-3.3506103 11.8777616-8.76 14.87l-8.78-9.16c-.7129326-.7524155-1.8816988-.8377724-2.696384-.1969213-.8146852.640851-1.0069736 1.7968464-.443616 2.6669213l5.56 8.71c-.6236464.0770866-1.2516191.1138297-1.88.11-9.3888407 0-17-7.6111593-17-17s7.6111593-17 17-17 17 7.6111593 17 17z" fill="#95a5a5"/><circle id="Oval" cx="21" cy="21" fill="#d1d4d1" r="2"/><g fill="#2c2f38"><circle id="Oval" cx="4" cy="4" r="1"/><circle id="Oval" cx="38" cy="4" r="1"/><circle id="Oval" cx="4" cy="54" r="1"/><circle id="Oval" cx="38" cy="54" r="1"/><rect id="Rectangle-path" height="8" rx="2" width="15" x="4" y="42"/></g><path id="Shape" d="m32.72 44.95c-1.5029341 1.4396181-3.8877417 1.3904006-5.33-.11-.1640091-.1820458-.3144144-.3759015-.45-.58l-1.72-2.69-2.34-3.68-5.56-8.71c-.5633576-.8700749-.3710692-2.0260703.443616-2.6669213.8146852-.6408511 1.9834514-.5554942 2.696384.1969213l8.78 9.16 2.84 2.96.76.79c.6923387.721986 1.0688166 1.6898625 1.0463015 2.6899074-.022515 1.0000448-.4421711 1.9499971-1.1663015 2.6400926z" fill="#bdc3c7"/><path id="Shape" d="m10 55h-2c-.55228475 0-1-.4477153-1-1s.44771525-1 1-1h2c.5522847 0 1 .4477153 1 1s-.4477153 1-1 1z" fill="#547580"/><path id="Shape" d="m34 55h-19c-.5522847 0-1-.4477153-1-1s.4477153-1 1-1h19c.5522847 0 1 .4477153 1 1s-.4477153 1-1 1z" fill="#547580"/><path id="Shape" d="m9.369 16.185c-.34655015-.0003581-.66820988-.1801149-.85012007-.4750824-.1819102-.2949675-.19813467-.6630901-.04287993-.9729176 2.3606185-4.7535782 7.2165755-7.75346155 12.524-7.737.5522847 0 1 .44771525 1 1s-.4477153 1-1 1c-4.5498723-.01413451-8.7126617 2.5577528-10.736 6.633-.1697038.3386631-.51619667.552366-.895.552z" fill="#bdc3c7"/></g></g></svg>