<svg id="Capa_1" enable-background="new 0 0 512 512" height="512" viewBox="0 0 512 512" width="512" xmlns="http://www.w3.org/2000/svg"><g><g><path d="m468.397 401.691h-22.999v-41.626h33.301v31.324c0 5.69-4.612 10.302-10.302 10.302z" fill="#ffd064"/></g><g><path d="m412.098 360.065h33.301v41.626h-33.301z" fill="#ffe07d"/></g><g><path d="m378.797 360.065h33.301v41.626h-33.301z" fill="#ffd064"/></g><g><path d="m345.496 360.065h33.301v41.626h-33.301z" fill="#ffe07d"/></g><g><path d="m312.195 360.065h33.301v41.626h-33.301z" fill="#ffd064"/></g><g><path d="m312.195 401.691h-22.999c-5.69 0-10.302-4.612-10.302-10.302v-31.324h33.301z" fill="#ffe07d"/></g><g><path d="m235.292 401.691h-22.999v-41.626h33.301v31.324c-.001 5.69-4.613 10.302-10.302 10.302z" fill="#ffd064"/></g><g><path d="m212.293 401.691h-22.999c-5.69 0-10.302-4.612-10.302-10.302v-31.324h33.301z" fill="#ffe07d"/></g><g><path d="m0 72.762v16.818c0 4.552 3.69 8.241 8.241 8.241h48.016c3.414 0 6.181 2.767 6.181 6.181v335.236c0 4.552 3.69 8.241 8.241 8.241h16.818c4.552 0 8.241-3.69 8.241-8.241v-354.114c0-11.379-9.225-20.604-20.604-20.604h-66.893c-4.551 0-8.241 3.69-8.241 8.242z" fill="#efecef"/></g><g><path d="m95.74 110.309h416.26v249.756h-416.26z" fill="#b3e59f"/></g><g><path d="m484.943 110.309v212.293c0 5.747-4.659 10.406-10.406 10.406h-378.797v27.057h416.26v-249.756z" fill="#95d6a4"/></g><g><g><path d="m478.699 217.711h-10.406c-4.143 0-7.5-3.357-7.5-7.5s3.357-7.5 7.5-7.5h10.406c4.143 0 7.5 3.357 7.5 7.5s-3.357 7.5-7.5 7.5z" fill="#ffe07d"/></g><g><path d="m478.699 251.012h-10.406c-4.143 0-7.5-3.357-7.5-7.5s3.357-7.5 7.5-7.5h10.406c4.143 0 7.5 3.357 7.5 7.5s-3.357 7.5-7.5 7.5z" fill="#ffe07d"/></g><g><path d="m478.699 284.313h-10.406c-4.143 0-7.5-3.357-7.5-7.5s3.357-7.5 7.5-7.5h10.406c4.143 0 7.5 3.357 7.5 7.5s-3.357 7.5-7.5 7.5z" fill="#ffe07d"/></g><g><path d="m478.699 317.614h-10.406c-4.143 0-7.5-3.357-7.5-7.5s3.357-7.5 7.5-7.5h10.406c4.143 0 7.5 3.357 7.5 7.5s-3.357 7.5-7.5 7.5z" fill="#ffe07d"/></g></g><g><g><path d="m418.342 217.711h-10.407c-4.143 0-7.5-3.357-7.5-7.5s3.357-7.5 7.5-7.5h10.407c4.143 0 7.5 3.357 7.5 7.5s-3.358 7.5-7.5 7.5z" fill="#ffe07d"/></g><g><path d="m418.342 251.012h-10.407c-4.143 0-7.5-3.357-7.5-7.5s3.357-7.5 7.5-7.5h10.407c4.143 0 7.5 3.357 7.5 7.5s-3.358 7.5-7.5 7.5z" fill="#ffe07d"/></g><g><path d="m418.342 284.313h-10.407c-4.143 0-7.5-3.357-7.5-7.5s3.357-7.5 7.5-7.5h10.407c4.143 0 7.5 3.357 7.5 7.5s-3.358 7.5-7.5 7.5z" fill="#ffe07d"/></g><g><path d="m418.342 317.614h-10.407c-4.143 0-7.5-3.357-7.5-7.5s3.357-7.5 7.5-7.5h10.407c4.143 0 7.5 3.357 7.5 7.5s-3.358 7.5-7.5 7.5z" fill="#ffe07d"/></g></g><g><g><path d="m156.098 317.614h-10.406c-4.143 0-7.5-3.357-7.5-7.5s3.357-7.5 7.5-7.5h10.406c4.143 0 7.5 3.357 7.5 7.5s-3.358 7.5-7.5 7.5z" fill="#ffe07d"/></g><g><path d="m156.098 284.313h-10.406c-4.143 0-7.5-3.357-7.5-7.5s3.357-7.5 7.5-7.5h10.406c4.143 0 7.5 3.357 7.5 7.5s-3.358 7.5-7.5 7.5z" fill="#ffe07d"/></g><g><path d="m156.098 251.012h-10.406c-4.143 0-7.5-3.357-7.5-7.5s3.357-7.5 7.5-7.5h10.406c4.143 0 7.5 3.357 7.5 7.5s-3.358 7.5-7.5 7.5z" fill="#ffe07d"/></g></g><g><path d="m129.041 168.669v-16.818c0-4.552 3.69-8.241 8.241-8.241h170.834c4.552 0 8.241 3.69 8.241 8.241v16.818c0 4.552-3.69 8.241-8.241 8.241h-170.834c-4.552.001-8.241-3.689-8.241-8.241z" fill="#ffe07d"/></g><g><path d="m289.301 176.911v-33.301h18.815c4.552 0 8.241 3.69 8.241 8.241v16.818c0 4.552-3.69 8.241-8.241 8.241h-18.815z" fill="#ffd064"/></g><g><g><path d="m418.341 321.561v-122.797c0-2.874 2.33-5.203 5.203-5.203h39.545c2.874 0 5.203 2.33 5.203 5.203v122.797c0 2.874-2.33 5.203-5.203 5.203h-39.545c-2.873 0-5.203-2.329-5.203-5.203z" fill="#62a4fb"/></g><g><path d="m463.089 193.561h-20.813c2.874 0 5.203 2.33 5.203 5.203v122.797c0 2.874-2.33 5.203-5.203 5.203h20.813c2.874 0 5.203-2.33 5.203-5.203v-122.797c.001-2.873-2.329-5.203-5.203-5.203z" fill="#5392f9"/></g></g><g><g><path d="m145.691 232.065v89.496c0 2.874-2.33 5.203-5.203 5.203h-44.748v-99.902h44.748c2.874 0 5.203 2.329 5.203 5.203z" fill="#62a4fb"/></g><g><path d="m140.488 226.862h-20.813c2.874 0 5.203 2.33 5.203 5.203v89.496c0 2.874-2.33 5.203-5.203 5.203h20.813c2.874 0 5.203-2.33 5.203-5.203v-89.496c0-2.874-2.329-5.203-5.203-5.203z" fill="#5392f9"/></g></g><g><g><circle cx="239.35" cy="256" fill="#e6f7fe" r="16.65"/></g></g><g><g><circle cx="305.951" cy="256" fill="#e6f7fe" r="16.65"/></g></g><g><g><path d="m222.699 334.265c-4.143 0-7.5-3.357-7.5-7.5v-16.65c0-4.143 3.357-7.5 7.5-7.5s7.5 3.357 7.5 7.5v16.65c0 4.142-3.357 7.5-7.5 7.5z" fill="#62a4fb"/></g><g><path d="m256 334.265c-4.143 0-7.5-3.357-7.5-7.5v-16.65c0-4.143 3.357-7.5 7.5-7.5s7.5 3.357 7.5 7.5v16.65c0 4.142-3.357 7.5-7.5 7.5z" fill="#62a4fb"/></g><g><path d="m355.902 334.265c-4.143 0-7.5-3.357-7.5-7.5v-16.65c0-4.143 3.357-7.5 7.5-7.5s7.5 3.357 7.5 7.5v16.65c0 4.142-3.357 7.5-7.5 7.5z" fill="#62a4fb"/></g><g><path d="m289.301 334.265c-4.143 0-7.5-3.357-7.5-7.5v-16.65c0-4.143 3.357-7.5 7.5-7.5s7.5 3.357 7.5 7.5v16.65c0 4.142-3.358 7.5-7.5 7.5z" fill="#62a4fb"/></g><g><path d="m322.602 334.265c-4.143 0-7.5-3.357-7.5-7.5v-16.65c0-4.143 3.357-7.5 7.5-7.5s7.5 3.357 7.5 7.5v16.65c0 4.142-3.358 7.5-7.5 7.5z" fill="#62a4fb"/></g></g></g></svg>