<?xml version="1.0" encoding="iso-8859-1"?>
<!-- Generator: Adobe Illustrator 19.0.0, SVG Export Plug-In . SVG Version: 6.00 Build 0)  -->
<svg version="1.1" id="Layer_1" xmlns="http://www.w3.org/2000/svg" xmlns:xlink="http://www.w3.org/1999/xlink" x="0px" y="0px"
	 viewBox="0 0 512 512" style="enable-background:new 0 0 512 512;" xml:space="preserve">
<polygon style="fill:#CDD6E0;" points="512,448.533 0,448.533 44.8,315.2 467.2,315.2 "/>
<path style="fill:#ACB3BA;" d="M0,448.533V459.2c0,11.733,9.6,21.333,21.333,21.333h469.333c11.733,0,21.333-9.6,21.333-21.333
	v-10.667H0z"/>
<path style="fill:#40596B;" d="M445.867,31.467H66.133C54.4,31.467,44.8,41.067,44.8,52.8v262.4h423.467V52.8
	C467.2,41.067,457.6,31.467,445.867,31.467z"/>
<rect x="76.8" y="63.467" style="fill:#84DBFF;" width="359.467" height="219.733"/>
<g>
	<polygon style="fill:#F2F2F2;" points="110.933,350.4 89.6,350.4 97.067,332.267 117.333,332.267 	"/>
	<polygon style="fill:#F2F2F2;" points="149.333,350.4 128,350.4 134.4,332.267 154.667,332.267 	"/>
	<polygon style="fill:#F2F2F2;" points="188.8,350.4 167.467,350.4 171.733,332.267 192,332.267 	"/>
	<polygon style="fill:#F2F2F2;" points="228.267,350.4 205.867,350.4 209.067,332.267 229.333,332.267 	"/>
	<polygon style="fill:#F2F2F2;" points="266.667,350.4 245.333,350.4 245.333,332.267 266.667,332.267 	"/>
	<polygon style="fill:#F2F2F2;" points="98.133,382.4 74.667,382.4 84.267,361.067 106.667,361.067 	"/>
	<polygon style="fill:#F2F2F2;" points="140.8,382.4 117.333,382.4 124.8,361.067 147.2,361.067 	"/>
	<polygon style="fill:#F2F2F2;" points="183.467,382.4 160,382.4 164.267,361.067 186.667,361.067 	"/>
	<polygon style="fill:#F2F2F2;" points="225.067,382.4 201.6,382.4 204.8,361.067 227.2,361.067 	"/>
	<polygon style="fill:#F2F2F2;" points="267.733,382.4 244.267,382.4 245.333,361.067 266.667,361.067 	"/>
	<polygon style="fill:#F2F2F2;" points="83.2,419.733 57.6,419.733 69.333,395.2 93.867,395.2 	"/>
	<polygon style="fill:#F2F2F2;" points="130.133,419.733 104.533,419.733 113.067,395.2 136.533,395.2 	"/>
	<polygon style="fill:#F2F2F2;" points="176,419.733 150.4,419.733 156.8,395.2 180.267,395.2 	"/>
	<polygon style="fill:#F2F2F2;" points="222.933,419.733 197.333,419.733 200.533,395.2 224,395.2 	"/>
	<polygon style="fill:#F2F2F2;" points="268.8,419.733 243.2,419.733 244.267,395.2 267.733,395.2 	"/>
	<polygon style="fill:#F2F2F2;" points="266.667,350.4 245.333,350.4 245.333,332.267 266.667,332.267 	"/>
	<polygon style="fill:#F2F2F2;" points="306.133,350.4 283.733,350.4 282.667,332.267 302.933,332.267 	"/>
	<polygon style="fill:#F2F2F2;" points="344.533,350.4 323.2,350.4 320,332.267 340.267,332.267 	"/>
	<polygon style="fill:#F2F2F2;" points="384,350.4 362.667,350.4 357.333,332.267 377.6,332.267 	"/>
	<polygon style="fill:#F2F2F2;" points="422.4,350.4 401.067,350.4 394.667,332.267 414.933,332.267 	"/>
	<polygon style="fill:#F2F2F2;" points="267.733,382.4 244.267,382.4 245.333,361.067 266.667,361.067 	"/>
	<polygon style="fill:#F2F2F2;" points="310.4,382.4 286.933,382.4 284.8,361.067 307.2,361.067 	"/>
	<polygon style="fill:#F2F2F2;" points="352,382.4 328.533,382.4 325.333,361.067 347.733,361.067 	"/>
	<polygon style="fill:#F2F2F2;" points="394.667,382.4 371.2,382.4 364.8,361.067 387.2,361.067 	"/>
	<polygon style="fill:#F2F2F2;" points="437.333,382.4 413.867,382.4 405.333,361.067 427.733,361.067 	"/>
	<polygon style="fill:#F2F2F2;" points="268.8,419.733 243.2,419.733 244.267,395.2 267.733,395.2 	"/>
	<polygon style="fill:#F2F2F2;" points="314.667,419.733 289.067,419.733 288,395.2 311.467,395.2 	"/>
	<polygon style="fill:#F2F2F2;" points="361.6,419.733 336,419.733 331.733,395.2 355.2,395.2 	"/>
	<polygon style="fill:#F2F2F2;" points="407.467,419.733 381.867,419.733 375.467,395.2 398.933,395.2 	"/>
	<polygon style="fill:#F2F2F2;" points="454.4,419.733 428.8,419.733 418.133,395.2 442.667,395.2 	"/>
</g>
<g>
</g>
<g>
</g>
<g>
</g>
<g>
</g>
<g>
</g>
<g>
</g>
<g>
</g>
<g>
</g>
<g>
</g>
<g>
</g>
<g>
</g>
<g>
</g>
<g>
</g>
<g>
</g>
<g>
</g>
</svg>
