<svg id="Layer_1" data-name="Layer 1" xmlns="http://www.w3.org/2000/svg" viewBox="0 0 512 458.67"><defs><style>.cls-1{fill:#18145c;}.cls-2{fill:#b3b3b3;}.cls-3{fill:#1a2980;}.cls-4{fill:#8a8a8a;}.cls-5{fill:#6e6e6e;}.cls-6{fill:#454545;}.cls-7{fill:#656d78;}</style></defs><g id="motherboard"><path class="cls-1" d="M0,32H512V443.66a15,15,0,0,1-15,15H15a15,15,0,0,1-15-15Z" transform="translate(0 0.01)"/><path class="cls-2" d="M480,0a10.67,10.67,0,1,0,10.67,10.67h0A10.66,10.66,0,0,0,480,0Z" transform="translate(0 0.01)"/><path class="cls-2" d="M309.34,0H288a10.67,10.67,0,0,0,0,21.33h21.34a10.67,10.67,0,0,0,0-21.33Z" transform="translate(0 0.01)"/><path class="cls-2" d="M373.34,0H352a10.67,10.67,0,0,0,0,21.33h21.34a10.67,10.67,0,0,0,0-21.33Z" transform="translate(0 0.01)"/><path class="cls-2" d="M437.34,0H416a10.67,10.67,0,0,0-.65,21.33c.21,0,.43,0,.65,0h21.32A10.67,10.67,0,1,0,438,0h-.63Z" transform="translate(0 0.01)"/><path class="cls-3" d="M15,10.66H497a15,15,0,0,1,15,15V437.33H0V25.66A15,15,0,0,1,15,10.66Z" transform="translate(0 0.01)"/><rect class="cls-4" x="53.34" y="64.01" width="42.66" height="42.66"/><path class="cls-2" d="M42.67,53.33v64h64v-64ZM85.34,96H64V74.66H85.34Z" transform="translate(0 0.01)"/><path class="cls-5" d="M85.34,384c-13.28,0-22.28-4.87-27.51-14.9a42.41,42.41,0,0,1-4.49-17.16V320H224v64Z" transform="translate(0 0.01)"/><path class="cls-6" d="M42.67,309.33V352s0,42.66,42.67,42.66H234.67V309.33Zm170.67,64h-128c-11.47,0-15.45-4.42-17.84-8.75A32.55,32.55,0,0,1,64,351.81V330.66H213.34Z" transform="translate(0 0.01)"/><path class="cls-2" d="M53.34,138.66a10.67,10.67,0,0,0-10.67,10.67h0v128h0A10.67,10.67,0,1,0,64,278c0-.21,0-.43,0-.65h0v-128A10.67,10.67,0,0,0,53.34,138.66Z" transform="translate(0 0.01)"/><path class="cls-2" d="M96,138.66a10.67,10.67,0,0,0-10.66,10.67v128h0a10.67,10.67,0,1,0,21.33.65c0-.21,0-.43,0-.65h0v-128A10.66,10.66,0,0,0,96,138.66Z" transform="translate(0 0.01)"/><path class="cls-2" d="M224,138.66a10.67,10.67,0,0,0-10.66,10.67v128h0a10.67,10.67,0,1,0,21.33.65c0-.21,0-.43,0-.65h0v-128A10.66,10.66,0,0,0,224,138.66Z" transform="translate(0 0.01)"/><path class="cls-2" d="M181.34,138.66a10.67,10.67,0,0,0-10.67,10.67v128h0A10.67,10.67,0,1,0,192,278c0-.21,0-.43,0-.65h0v-128A10.67,10.67,0,0,0,181.34,138.66Z" transform="translate(0 0.01)"/><path class="cls-2" d="M458.67,373.33h-192a10.67,10.67,0,1,0-.65,21.33H458.67a10.67,10.67,0,0,0,.65-21.33Z" transform="translate(0 0.01)"/><path class="cls-2" d="M266.67,352h192a10.67,10.67,0,0,0,0-21.34h-192a10.67,10.67,0,0,0,0,21.34Z" transform="translate(0 0.01)"/><path class="cls-2" d="M458.67,96h-192a10.67,10.67,0,0,0-.65,21.33c.21,0,.43,0,.65,0h192A10.67,10.67,0,0,0,459.32,96C459.11,96,458.89,96,458.67,96Z" transform="translate(0 0.01)"/><path class="cls-2" d="M266.67,74.66h192a10.67,10.67,0,1,0,.65-21.33H266.67A10.67,10.67,0,0,0,266,74.66C266.23,74.67,266.45,74.67,266.67,74.66Z" transform="translate(0 0.01)"/><rect class="cls-5" x="458.67" y="149.34" width="42.67" height="149.33"/><path class="cls-6" d="M448,138.66V309.33h64V138.66ZM490.67,288H469.34V160h21.33Z" transform="translate(0 0.01)"/><path class="cls-6" d="M490.67,181.33A10.67,10.67,0,1,1,480,170.66a10.67,10.67,0,0,1,10.67,10.67Z" transform="translate(0 0.01)"/><path class="cls-6" d="M490.67,224A10.67,10.67,0,1,1,480,213.33,10.67,10.67,0,0,1,490.67,224Z" transform="translate(0 0.01)"/><path class="cls-6" d="M490.67,266.66A10.67,10.67,0,1,1,480,256h0a10.66,10.66,0,0,1,10.67,10.65Z" transform="translate(0 0.01)"/><path class="cls-1" d="M149.34,64a10.67,10.67,0,1,1-10.67-10.67h0A10.67,10.67,0,0,1,149.34,64Z" transform="translate(0 0.01)"/><path class="cls-1" d="M192,106.66A10.67,10.67,0,1,1,181.32,96h0A10.67,10.67,0,0,1,192,106.66Z" transform="translate(0 0.01)"/><path class="cls-1" d="M170.67,85.33A10.67,10.67,0,1,1,160,74.66h0a10.66,10.66,0,0,1,10.67,10.65Z" transform="translate(0 0.01)"/><path class="cls-1" d="M192,64a10.67,10.67,0,1,1-10.67-10.67h0A10.66,10.66,0,0,1,192,64Z" transform="translate(0 0.01)"/><path class="cls-1" d="M149.34,106.66A10.67,10.67,0,1,1,138.66,96h0A10.67,10.67,0,0,1,149.34,106.66Z" transform="translate(0 0.01)"/><path class="cls-1" d="M234.67,106.66A10.67,10.67,0,1,1,224,96h0a10.66,10.66,0,0,1,10.67,10.65Z" transform="translate(0 0.01)"/><path class="cls-1" d="M213.34,85.33a10.67,10.67,0,1,1-10.67-10.67h0A10.67,10.67,0,0,1,213.34,85.33Z" transform="translate(0 0.01)"/><path class="cls-1" d="M234.67,64A10.67,10.67,0,1,1,224,53.33h0A10.65,10.65,0,0,1,234.67,64Z" transform="translate(0 0.01)"/><path class="cls-6" d="M181.34,341.33H96a10.67,10.67,0,0,0,0,21.33h85.34a10.67,10.67,0,0,0,0-21.33Z" transform="translate(0 0.01)"/><rect class="cls-6" x="266.67" y="149.34" width="149.33" height="149.33"/><path class="cls-1" d="M138.67,181.33A10.67,10.67,0,0,0,128,192v42.66a10.67,10.67,0,0,0,21.34,0V192A10.67,10.67,0,0,0,138.67,181.33Z" transform="translate(0 0.01)"/><path class="cls-1" d="M138.67,160A10.67,10.67,0,1,0,128,149.33h0A10.67,10.67,0,0,0,138.67,160Z" transform="translate(0 0.01)"/><path class="cls-1" d="M138.67,266.66a10.67,10.67,0,1,0,10.67,10.67,10.67,10.67,0,0,0-10.67-10.67Z" transform="translate(0 0.01)"/><path class="cls-7" d="M341.34,298.66A74.67,74.67,0,1,1,416,224v0A74.75,74.75,0,0,1,341.34,298.66Z" transform="translate(0 0.01)"/><path class="cls-2" d="M412.19,234.33l5.64-20.57A228.52,228.52,0,0,0,387.14,208a142.5,142.5,0,0,0-22.81-.93c9.86-9.86,23.62-19.71,34.39-25.85l-10.56-18.53a227.44,227.44,0,0,0-25.78,17.63,142.67,142.67,0,0,0-16.82,15.5,132.21,132.21,0,0,1,.91-14.88,208.88,208.88,0,0,1,5.16-27.75h0l-10.29-2.86-10.29-2.81a226.93,226.93,0,0,0-5.75,30.69,141.11,141.11,0,0,0-.94,22.79c-9.86-9.84-19.7-23.62-25.84-34.37L280,177.19A228.22,228.22,0,0,0,297.63,203a142.58,142.58,0,0,0,15.5,16.81,129.88,129.88,0,0,1-14.88-.89,210.53,210.53,0,0,1-27.75-5.17L267.69,224l2.83-10.29-5.66,20.62a225.16,225.16,0,0,0,30.69,5.77,155.13,155.13,0,0,0,17.37,1.06c1.86,0,3.67,0,5.42-.12-9.86,9.84-23.62,19.68-34.37,25.84l5.28,9.27,5.28,9.26a225.22,225.22,0,0,0,25.77-17.64,139.21,139.21,0,0,0,16.81-15.48,129.7,129.7,0,0,1-.89,14.87,209.06,209.06,0,0,1-5.17,27.74l20.57,5.64a225.16,225.16,0,0,0,5.77-30.69,142.51,142.51,0,0,0,.94-22.81c9.84,9.86,19.69,23.62,25.83,34.37l18.54-10.56a223.94,223.94,0,0,0-17.64-25.77,140.79,140.79,0,0,0-15.48-16.81,132,132,0,0,1,14.87.91A209,209,0,0,1,412.19,234.33Z" transform="translate(0 0.01)"/><path class="cls-6" d="M341.34,245.33A21.34,21.34,0,1,1,362.67,224v0A21.37,21.37,0,0,1,341.34,245.33Z" transform="translate(0 0.01)"/><path class="cls-5" d="M341.34,192a32,32,0,1,0,32,32A32,32,0,0,0,341.34,192Zm0,42.66A10.67,10.67,0,1,1,352,224v0A10.67,10.67,0,0,1,341.34,234.66Z" transform="translate(0 0.01)"/><path class="cls-2" d="M341.34,138.66A85.34,85.34,0,1,0,426.67,224h0A85.34,85.34,0,0,0,341.34,138.66Zm0,149.34a64,64,0,1,1,64-64,64,64,0,0,1-64,64Z" transform="translate(0 0.01)"/></g></svg>