<svg height="512" viewBox="0 0 58 58" width="512" xmlns="http://www.w3.org/2000/svg"><g id="Page-1" fill="none" fill-rule="evenodd"><g id="016---PC-and-Monitor" fill-rule="nonzero"><path id="Shape" d="m30 58h26c1.1032019-.0032948 1.9967052-.8967981 2-2v-54c-.0032948-1.10320187-.8967981-1.9967052-2-2h-26c-1.1032019.0032948-1.9967052.89679813-2 2v54c0 1.1045695.8954305 2 2 2z" fill="#285680"/><path id="Rectangle-path" d="m16 47h12v8h-12z" fill="#547580"/><path id="Shape" d="m44 43v1c0 2.209139-1.790861 4-4 4h-36c-2.209139 0-4-1.790861-4-4v-1z" fill="#84b5cb"/><path id="Shape" d="m44 18v25h-44v-25c0-2.209139 1.790861-4 4-4h36c2.209139 0 4 1.790861 4 4z" fill="#2980ba"/><path id="Shape" d="m34 56c-.0081672 1.1011688-.8988312 1.9918328-2 2h-20c-1.1032019-.0032948-1.9967052-.8967981-2-2 .0081672-1.1011688.8988312-1.9918328 2-2h20c1.1032019.0032948 1.9967052.8967981 2 2z" fill="#84b5cb"/><rect id="Rectangle-path" fill="#2c3e50" height="4" rx="1" width="22" x="32" y="5"/><circle id="Oval" cx="51" cy="16" fill="#fb7b76" r="2"/><circle id="Oval" cx="51" cy="24" fill="#4fba6f" r="2"/><g fill="#2c3e50"><path id="Shape" d="m38 55c-.5522847 0-1-.4477153-1-1v-2c0-.5522847.4477153-1 1-1s1 .4477153 1 1v2c0 .5522847-.4477153 1-1 1z"/><path id="Shape" d="m42 55c-.5522847 0-1-.4477153-1-1v-2c0-.5522847.4477153-1 1-1s1 .4477153 1 1v2c0 .5522847-.4477153 1-1 1z"/><path id="Shape" d="m46 55c-.5522847 0-1-.4477153-1-1v-2c0-.5522847.4477153-1 1-1s1 .4477153 1 1v2c0 .5522847-.4477153 1-1 1z"/><path id="Shape" d="m50 55c-.5522847 0-1-.4477153-1-1v-2c0-.5522847.4477153-1 1-1s1 .4477153 1 1v2c0 .5522847-.4477153 1-1 1z"/><path id="Shape" d="m54 55c-.5522847 0-1-.4477153-1-1v-2c0-.5522847.4477153-1 1-1s1 .4477153 1 1v2c0 .5522847-.4477153 1-1 1z"/></g><path id="Shape" d="m36.82 14c-.17 6.09-1.96 24-36.82 24v-20c0-2.209139 1.790861-4 4-4z" fill="#3b97d3"/><path id="Shape" d="m4 23c-.4043959-.0000863-.76893405-.2437275-.92367798-.6173454-.15474393-.373618-.06922994-.8036603.21667798-1.0896546l4-4c.39237889-.3789722 1.01608478-.3735524 1.40181858.0121814.38573379.3857338.39115363 1.0094397.01218142 1.4018186l-4 4c-.18749273.1875494-.44180519.2929434-.707.293z" fill="#fff"/><path id="Shape" d="m4 29c-.4043959-.0000863-.76893405-.2437275-.92367798-.6173454-.15474393-.373618-.06922994-.8036603.21667798-1.0896546l10-10c.3923789-.3789722 1.0160848-.3735524 1.4018186.0121814s.3911536 1.0094397.0121814 1.4018186l-10 10c-.18749273.1875494-.44180519.2929434-.707.293z" fill="#fff"/></g></g></svg>