<svg id="Layer_1" data-name="Layer 1" xmlns="http://www.w3.org/2000/svg" viewBox="0 0 512 176.7"><defs><style>.cls-1{fill:#fcff3f;}.cls-2{fill:#4d6632;}.cls-3{fill:#41572a;}.cls-4{fill:#ffce54;}.cls-5{fill:#656d78;}.cls-6{fill:#2f343b;}</style></defs><rect class="cls-1" width="512" height="58.78"/><g id="ram"><path class="cls-2" d="M202,339.52V310.05h0a9.83,9.83,0,1,1,19.66,0h0v29.48H506V270.74a9.83,9.83,0,0,1,0-19.66v-9.81a9.83,9.83,0,0,1,0-19.66l0-49.13H6v49.13a9.83,9.83,0,1,1,0,19.65v9.82a9.83,9.83,0,0,1,0,19.66v68.78Z" transform="translate(0 -162.83)"/><polygon class="cls-3" points="201.97 147.21 6.02 147.21 6.02 176.69 201.97 176.69 201.97 147.21"/><polygon class="cls-3" points="221.62 147.2 221.62 147.2 221.62 147.2 221.61 176.69 506 176.69 506 147.22 221.62 147.2"/><path class="cls-4" d="M477.09,329.7a9.83,9.83,0,0,0-9.82,9.82h19.66A9.84,9.84,0,0,0,477.09,329.7Z" transform="translate(0 -162.83)"/><path class="cls-4" d="M447.62,329.7a9.84,9.84,0,0,0-9.83,9.82h19.66A9.83,9.83,0,0,0,447.62,329.7Z" transform="translate(0 -162.83)"/><path class="cls-4" d="M418.14,329.7a9.81,9.81,0,0,0-9.82,9.82H428A9.83,9.83,0,0,0,418.14,329.7Z" transform="translate(0 -162.83)"/><path class="cls-4" d="M388.66,329.7a9.81,9.81,0,0,0-9.82,9.83h19.64A9.82,9.82,0,0,0,388.66,329.7Z" transform="translate(0 -162.83)"/><path class="cls-4" d="M359.19,329.7a9.82,9.82,0,0,0-9.83,9.83H369A9.82,9.82,0,0,0,359.19,329.7Z" transform="translate(0 -162.83)"/><path class="cls-4" d="M329.7,329.69a9.85,9.85,0,0,0-9.83,9.83h19.66A9.84,9.84,0,0,0,329.7,329.69Z" transform="translate(0 -162.83)"/><path class="cls-4" d="M300.22,329.69a9.85,9.85,0,0,0-9.83,9.83h19.67A9.86,9.86,0,0,0,300.22,329.69Z" transform="translate(0 -162.83)"/><path class="cls-4" d="M270.75,329.69a9.85,9.85,0,0,0-9.83,9.83h19.66A9.85,9.85,0,0,0,270.75,329.69Z" transform="translate(0 -162.83)"/><path class="cls-4" d="M241.27,329.69a9.84,9.84,0,0,0-9.83,9.83H251.1A9.85,9.85,0,0,0,241.27,329.69Z" transform="translate(0 -162.83)"/><path class="cls-4" d="M182.31,329.7a9.81,9.81,0,0,0-9.82,9.82h19.64A9.81,9.81,0,0,0,182.31,329.7Z" transform="translate(0 -162.83)"/><path class="cls-4" d="M152.83,329.7a9.81,9.81,0,0,0-9.82,9.82h19.65A9.81,9.81,0,0,0,152.83,329.7Z" transform="translate(0 -162.83)"/><path class="cls-4" d="M123.34,329.7a9.83,9.83,0,0,0-9.82,9.82h19.65A9.8,9.8,0,0,0,123.34,329.7Z" transform="translate(0 -162.83)"/><path class="cls-4" d="M93.86,329.7A9.84,9.84,0,0,0,84,339.52H103.7A9.83,9.83,0,0,0,93.86,329.7Z" transform="translate(0 -162.83)"/><path class="cls-4" d="M64.39,329.7a9.83,9.83,0,0,0-9.82,9.82H74.22A9.83,9.83,0,0,0,64.39,329.7Z" transform="translate(0 -162.83)"/><path class="cls-4" d="M34.91,329.7a9.81,9.81,0,0,0-9.82,9.82H44.73A9.81,9.81,0,0,0,34.91,329.7Z" transform="translate(0 -162.83)"/><rect class="cls-5" x="55.15" y="58.78" width="39.31" height="39.31"/><polygon class="cls-5" points="133.76 98.08 133.76 58.78 173.06 58.79 173.06 98.07 133.76 98.08"/><polygon class="cls-5" points="251.67 98.08 251.67 58.77 290.97 58.78 290.98 98.08 251.67 98.08"/><rect class="cls-5" x="330.28" y="58.77" width="39.31" height="39.31"/><path class="cls-6" d="M45.31,211.78v59h59v-59ZM65,251.1V231.43H84.63v19.65Z" transform="translate(0 -162.83)"/><path class="cls-6" d="M123.93,211.78v59h58.95v-59Zm19.65,39.32V231.43h19.66v19.64Z" transform="translate(0 -162.83)"/><path class="cls-6" d="M241.85,211.78v59h59v-59Zm19.65,39.31V231.44h19.65v19.66Z" transform="translate(0 -162.83)"/><path class="cls-6" d="M379.41,211.78h-59v59h59ZM340.1,231.43h19.66v19.65H340.11Z" transform="translate(0 -162.83)"/><polygon class="cls-5" points="408.9 98.08 408.9 58.78 448.2 58.78 448.19 98.07 408.9 98.08"/><path class="cls-6" d="M458,211.79h-59v59h59Zm-39.31,39.3V231.43h19.65v19.64Z" transform="translate(0 -162.83)"/></g></svg>