<svg height="511.99953pt" viewBox="1 1 511.99953 511.99953" width="511.99953pt" xmlns="http://www.w3.org/2000/svg"><path d="m46.546875 0h418.90625c25.707031 0 46.546875 20.839844 46.546875 46.546875v418.90625c0 25.707031-20.839844 46.546875-46.546875 46.546875h-418.90625c-25.707031 0-46.546875-20.839844-46.546875-46.546875v-418.90625c0-25.707031 20.839844-46.546875 46.546875-46.546875zm0 0" fill="#4c4f6e"/><path d="m46.546875 0h209.453125c25.707031 0 46.546875 20.839844 46.546875 46.546875v418.90625c0 25.707031-20.839844 46.546875-46.546875 46.546875h-209.453125c-25.707031 0-46.546875-20.839844-46.546875-46.546875v-418.90625c0-25.707031 20.839844-46.546875 46.546875-46.546875zm0 0" fill="#4c4f6e"/><path d="m46.546875 0h209.453125c25.707031 0 46.546875 20.839844 46.546875 46.546875v418.90625c0 25.707031-20.839844 46.546875-46.546875 46.546875h-209.453125c-25.707031 0-46.546875-20.839844-46.546875-46.546875v-418.90625c0-25.707031 20.839844-46.546875 46.546875-46.546875zm0 0" fill="#7c7f95"/><path d="m321.902344.175781c-12.863282.011719-23.28125 10.449219-23.269532 23.308594.003907 2.609375.445313 5.199219 1.304688 7.660156l.035156.105469.007813.015625.015625.042969.003906.015625.019531.058593.015625.050782h.003906c.023438.078125.050782.148437.074219.226562l.019531.054688.003907.003906c.035156.113281.074219.222656.109375.335938v.003906c.855468 2.617187 1.476562 5.300781 1.855468 8.027344l.007813.058593v.003907l.007813.058593v.003907c.011718.078124.023437.160156.035156.242187l.003906.054687.003906.007813.003906.054687.003907.007813c.011719.101563.023437.199219.035156.296875l.003906.007812.003907.054688.003906.007812c.011718.097657.023437.199219.03125.300782l.003906.003906.003906.054688v.011718l.007813.054688c.007812.082031.015625.160156.027343.238281v.007813l.003907.054687.003906.011719.003906.054687v.003907c.007813.078124.015625.15625.023438.234374v.011719l.007812.046875v.023438l.003907.042968.003906.019532.003906.046875v.015625l.015625.160156v.015625l.003906.042969.003907.023437.003906.042969v.027344l.003906.039062.003906.03125.003906.035156v.015626l.007813.089843v.023438l.003906.039062.003907.03125.003906.035157v.03125l.003906.039062.003906.027344v.039062l.003906.027344.003907.070312.003906.03125.003906.039063v.03125l.003907.035156.003906.03125v.039063l.003906.03125.003906.035156v.03125l.003906.0625.003907.039062v.03125l.003906.039063v.03125l.003906.035156v.035157l.003907.035156v.03125l.003906.046875.003906.023437v.0625l.003906.035156v.035157l.003906.035156v.035156l.003907.03125v.039063l.003906.03125v.035156l.003906.035156.003907.0625v.070313l.003906.03125v.035156l.003906.035156v.066407l.003906.046874v.023438l.003906.0625v.023438l.003907.050781v.066406l.003906.035156v.066407l.003906.042968v.109375l.003907.054688v.027343l.003906.042969v.097657l.003906.042968v.097656l.003906.066407v.097656l.003906.042969v.167968l.003907.070313v.167969l.003906.042968v419.980469l-.003906.066407v.160156l-.003907.070312v.15625l-.003906.140625v.015625l-.003906.050782v.089843l-.003906.070313v.085937l-.003906.058594v.011719l-.003907.140625v.011719l-.003906.0625v.007812l-.003906.070312-.003907.148438v.007812l-.003906.066407v.003906l-.007812.144531v.003906l-.003906.070313v.007813c-.003907.070312-.003907.144531-.007813.214843v.003907c-.210937 4.03125-.945313 8.019531-2.183594 11.863281-3.964843 12.226562 2.734375 25.351562 14.964844 29.3125 12.226563 3.960937 25.351563-2.738281 29.3125-14.964844.003906-.011719.007813-.019531.007813-.03125 2.992187-9.253906 4.511718-18.921875 4.507812-28.648437v-418.914063c.007812-10.484375-1.757812-20.894531-5.226562-30.789063-3.269532-9.328124-12.078126-15.578124-21.964844-15.582031zm0 0" fill="#2c2f53"/><path d="m279.273438 46.546875v418.90625c0 12.855469-10.421876 23.273437-23.273438 23.273437h-209.457031c-12.851563 0-23.269531-10.417968-23.269531-23.273437v-418.90625c0-12.855469 10.417968-23.273437 23.269531-23.273437h209.457031c12.851562 0 23.273438 10.417968 23.273438 23.273437zm0 0" fill="#4c4f6e"/><path d="m256 116.363281h-209.453125c-12.855469 0-23.273437-10.417969-23.273437-23.273437v-46.542969c0-12.855469 10.417968-23.273437 23.273437-23.273437h209.453125c12.851562 0 23.273438 10.417968 23.273438 23.273437v46.542969c0 12.855468-10.421876 23.273437-23.273438 23.273437zm0 0" fill="#2c2f53"/><path d="m46.546875 116.363281h209.453125c12.851562 0 23.273438 10.417969 23.273438 23.273438v46.546875c0 12.851562-10.421876 23.269531-23.273438 23.269531h-209.453125c-12.855469 0-23.273437-10.417969-23.273437-23.269531v-46.546875c0-12.855469 10.417968-23.273438 23.273437-23.273438zm0 0" fill="#2c2f53"/><path d="m46.546875 209.453125h209.453125c12.851562 0 23.273438 10.421875 23.273438 23.273437v46.546876c0 12.851562-10.421876 23.273437-23.273438 23.273437h-209.453125c-12.855469 0-23.273437-10.421875-23.273437-23.273437v-46.546876c0-12.851562 10.417968-23.273437 23.273437-23.273437zm0 0" fill="#2c2f53"/><path d="m81.453125 232.726562h139.636719c6.425781 0 11.636718 5.210938 11.636718 11.636719s-5.210937 11.636719-11.636718 11.636719h-139.636719c-6.425781 0-11.636719-5.210938-11.636719-11.636719s5.210938-11.636719 11.636719-11.636719zm0 0" fill="#4c4f6e"/><path d="m81.453125 139.636719h139.636719c6.425781 0 11.636718 5.210937 11.636718 11.636719 0 6.425781-5.210937 11.636718-11.636718 11.636718h-139.636719c-6.425781 0-11.636719-5.210937-11.636719-11.636718 0-6.425782 5.210938-11.636719 11.636719-11.636719zm0 0" fill="#4c4f6e"/><path d="m81.453125 46.546875h139.636719c6.425781 0 11.636718 5.207031 11.636718 11.632813 0 6.429687-5.210937 11.636718-11.636718 11.636718h-139.636719c-6.425781 0-11.636719-5.207031-11.636719-11.636718 0-6.425782 5.210938-11.632813 11.636719-11.632813zm0 0" fill="#4c4f6e"/><path d="m81.453125 46.546875h23.273437c6.425782 0 11.636719 5.207031 11.636719 11.632813 0 6.429687-5.210937 11.636718-11.636719 11.636718h-23.273437c-6.425781 0-11.636719-5.207031-11.636719-11.636718 0-6.425782 5.210938-11.632813 11.636719-11.632813zm0 0" fill="#999aac"/><path d="m81.453125 139.636719h23.273437c6.425782 0 11.636719 5.210937 11.636719 11.636719 0 6.425781-5.210937 11.636718-11.636719 11.636718h-23.273437c-6.425781 0-11.636719-5.210937-11.636719-11.636718 0-6.425782 5.210938-11.636719 11.636719-11.636719zm0 0" fill="#999aac"/><path d="m81.453125 232.726562h23.273437c6.425782 0 11.636719 5.210938 11.636719 11.636719s-5.210937 11.636719-11.636719 11.636719h-23.273437c-6.425781 0-11.636719-5.210938-11.636719-11.636719s5.210938-11.636719 11.636719-11.636719zm0 0" fill="#999aac"/><path d="m46.546875 302.546875h209.453125c12.851562 0 23.273438 10.417969 23.273438 23.269531v46.546875c0 12.851563-10.421876 23.273438-23.273438 23.273438h-209.453125c-12.855469 0-23.273437-10.417969-23.273437-23.273438v-46.546875c0-12.851562 10.417968-23.269531 23.273437-23.269531zm0 0" fill="#2c2f53"/><path d="m81.453125 325.816406h139.636719c6.425781 0 11.636718 5.210938 11.636718 11.636719 0 6.429687-5.210937 11.636719-11.636718 11.636719h-139.636719c-6.425781 0-11.636719-5.207032-11.636719-11.636719 0-6.425781 5.210938-11.636719 11.636719-11.636719zm0 0" fill="#4c4f6e"/><path d="m46.546875 395.636719h209.453125c12.851562 0 23.273438 10.417969 23.273438 23.273437v46.542969c0 12.855469-10.421876 23.273437-23.273438 23.273437h-209.453125c-12.855469 0-23.273437-10.417968-23.273437-23.273437v-46.542969c0-12.855468 10.417968-23.273437 23.273437-23.273437zm0 0" fill="#2c2f53"/><path d="m81.453125 418.910156h139.636719c6.425781 0 11.636718 5.207032 11.636718 11.636719 0 6.425781-5.210937 11.632813-11.636718 11.632813h-139.636719c-6.425781 0-11.636719-5.207032-11.636719-11.632813 0-6.429687 5.210938-11.636719 11.636719-11.636719zm0 0" fill="#4c4f6e"/><path d="m69.816406 81.453125c0 6.429687-5.207031 11.636719-11.632812 11.636719-6.429688 0-11.636719-5.207032-11.636719-11.636719 0-6.425781 5.207031-11.636719 11.636719-11.636719 6.425781 0 11.632812 5.210938 11.632812 11.636719zm0 0" fill="#e80035"/><path d="m116.363281 81.453125c0 6.429687-5.210937 11.636719-11.636719 11.636719-6.425781 0-11.636718-5.207032-11.636718-11.636719 0-6.425781 5.210937-11.636719 11.636718-11.636719 6.425782 0 11.636719 5.210938 11.636719 11.636719zm0 0" fill="#11cbe5"/><path d="m69.816406 174.546875c0 6.425781-5.207031 11.636719-11.632812 11.636719-6.429688 0-11.636719-5.210938-11.636719-11.636719 0-6.429687 5.207031-11.636719 11.636719-11.636719 6.425781 0 11.632812 5.207032 11.632812 11.636719zm0 0" fill="#e80035"/><path d="m116.363281 174.546875c0 6.425781-5.210937 11.636719-11.636719 11.636719-6.425781 0-11.636718-5.210938-11.636718-11.636719 0-6.429687 5.210937-11.636719 11.636718-11.636719 6.425782 0 11.636719 5.207032 11.636719 11.636719zm0 0" fill="#11cbe5"/><path d="m69.816406 267.636719c0 6.425781-5.207031 11.636719-11.632812 11.636719-6.429688 0-11.636719-5.210938-11.636719-11.636719s5.207031-11.636719 11.636719-11.636719c6.425781 0 11.632812 5.210938 11.632812 11.636719zm0 0" fill="#e80035"/><path d="m116.363281 267.636719c0 6.425781-5.210937 11.636719-11.636719 11.636719-6.425781 0-11.636718-5.210938-11.636718-11.636719s5.210937-11.636719 11.636718-11.636719c6.425782 0 11.636719 5.210938 11.636719 11.636719zm0 0" fill="#11cbe5"/><path d="m69.816406 360.726562c0 6.425782-5.207031 11.636719-11.632812 11.636719-6.429688 0-11.636719-5.210937-11.636719-11.636719 0-6.425781 5.207031-11.636718 11.636719-11.636718 6.425781 0 11.632812 5.210937 11.632812 11.636718zm0 0" fill="#e80035"/><path d="m116.363281 360.726562c0 6.425782-5.210937 11.636719-11.636719 11.636719-6.425781 0-11.636718-5.210937-11.636718-11.636719 0-6.425781 5.210937-11.636718 11.636718-11.636718 6.425782 0 11.636719 5.210937 11.636719 11.636718zm0 0" fill="#11cbe5"/><path d="m69.816406 453.816406c0 6.429688-5.207031 11.636719-11.632812 11.636719-6.429688 0-11.636719-5.207031-11.636719-11.636719 0-6.425781 5.207031-11.632812 11.636719-11.632812 6.425781 0 11.632812 5.207031 11.632812 11.632812zm0 0" fill="#e80035"/><path d="m116.363281 453.816406c0 6.429688-5.210937 11.636719-11.636719 11.636719-6.425781 0-11.636718-5.207031-11.636718-11.636719 0-6.425781 5.210937-11.632812 11.636718-11.632812 6.425782 0 11.636719 5.207031 11.636719 11.632812zm0 0" fill="#11cbe5"/><g fill="#1e2147"><path d="m151.273438 46.546875c6.425781 0 11.636718 5.207031 11.636718 11.632813v23.273437c0 6.429687-5.210937 11.636719-11.636718 11.636719-6.425782 0-11.636719-5.207032-11.636719-11.636719v-23.273437c0-6.425782 5.210937-11.632813 11.636719-11.632813zm0 0"/><path d="m197.816406 46.546875c6.429688 0 11.636719 5.207031 11.636719 11.632813v23.273437c0 6.429687-5.207031 11.636719-11.636719 11.636719-6.425781 0-11.632812-5.207032-11.632812-11.636719v-23.273437c0-6.425782 5.207031-11.632813 11.632812-11.632813zm0 0"/><path d="m244.363281 46.546875c6.425781 0 11.636719 5.207031 11.636719 11.632813v23.273437c0 6.429687-5.210938 11.636719-11.636719 11.636719s-11.636719-5.207032-11.636719-11.636719v-23.273437c0-6.425782 5.210938-11.632813 11.636719-11.632813zm0 0"/><path d="m151.273438 139.636719c6.425781 0 11.636718 5.210937 11.636718 11.636719v23.273437c0 6.425781-5.210937 11.636719-11.636718 11.636719-6.425782 0-11.636719-5.210938-11.636719-11.636719v-23.273437c0-6.425782 5.210937-11.636719 11.636719-11.636719zm0 0"/><path d="m197.816406 139.636719c6.429688 0 11.636719 5.210937 11.636719 11.636719v23.273437c0 6.425781-5.207031 11.636719-11.636719 11.636719-6.425781 0-11.632812-5.210938-11.632812-11.636719v-23.273437c0-6.425782 5.207031-11.636719 11.632812-11.636719zm0 0"/><path d="m197.816406 232.726562c6.429688 0 11.636719 5.210938 11.636719 11.636719v23.273438c0 6.425781-5.207031 11.636719-11.636719 11.636719-6.425781 0-11.632812-5.210938-11.632812-11.636719v-23.273438c0-6.425781 5.207031-11.636719 11.632812-11.636719zm0 0"/><path d="m197.816406 325.816406c6.429688 0 11.636719 5.210938 11.636719 11.636719v23.273437c0 6.425782-5.207031 11.636719-11.636719 11.636719-6.425781 0-11.632812-5.210937-11.632812-11.636719v-23.273437c0-6.425781 5.207031-11.636719 11.632812-11.636719zm0 0"/><path d="m197.816406 418.910156c6.429688 0 11.636719 5.207032 11.636719 11.636719v23.269531c0 6.429688-5.207031 11.636719-11.636719 11.636719-6.425781 0-11.632812-5.207031-11.632812-11.636719v-23.269531c0-6.429687 5.207031-11.636719 11.632812-11.636719zm0 0"/><path d="m244.363281 139.636719c6.425781 0 11.636719 5.210937 11.636719 11.636719v23.273437c0 6.425781-5.210938 11.636719-11.636719 11.636719s-11.636719-5.210938-11.636719-11.636719v-23.273437c0-6.425782 5.210938-11.636719 11.636719-11.636719zm0 0"/><path d="m151.273438 232.726562c6.425781 0 11.636718 5.210938 11.636718 11.636719v23.273438c0 6.425781-5.210937 11.636719-11.636718 11.636719-6.425782 0-11.636719-5.210938-11.636719-11.636719v-23.273438c0-6.425781 5.210937-11.636719 11.636719-11.636719zm0 0"/><path d="m244.363281 232.726562c6.425781 0 11.636719 5.210938 11.636719 11.636719v23.273438c0 6.425781-5.210938 11.636719-11.636719 11.636719s-11.636719-5.210938-11.636719-11.636719v-23.273438c0-6.425781 5.210938-11.636719 11.636719-11.636719zm0 0"/><path d="m151.273438 325.816406c6.425781 0 11.636718 5.210938 11.636718 11.636719v23.273437c0 6.425782-5.210937 11.636719-11.636718 11.636719-6.425782 0-11.636719-5.210937-11.636719-11.636719v-23.273437c0-6.425781 5.210937-11.636719 11.636719-11.636719zm0 0"/><path d="m244.363281 325.816406c6.425781 0 11.636719 5.210938 11.636719 11.636719v23.273437c0 6.425782-5.210938 11.636719-11.636719 11.636719s-11.636719-5.210937-11.636719-11.636719v-23.273437c0-6.425781 5.210938-11.636719 11.636719-11.636719zm0 0"/><path d="m151.273438 418.910156c6.425781 0 11.636718 5.207032 11.636718 11.636719v23.269531c0 6.429688-5.210937 11.636719-11.636718 11.636719-6.425782 0-11.636719-5.207031-11.636719-11.636719v-23.269531c0-6.429687 5.210937-11.636719 11.636719-11.636719zm0 0"/><path d="m244.363281 418.910156c6.425781 0 11.636719 5.207032 11.636719 11.636719v23.269531c0 6.429688-5.210938 11.636719-11.636719 11.636719s-11.636719-5.207031-11.636719-11.636719v-23.269531c0-6.429687 5.210938-11.636719 11.636719-11.636719zm0 0"/></g><path d="m46.546875 23.273438h1.277344c6.425781.007812 11.632812 5.222656 11.625 11.648437-.007813 6.417969-5.207031 11.617187-11.625 11.625h-1.277344v46.546875c6.453125.417969 11.445313 5.828125 11.34375 12.292969-.089844 5.902343-4.757813 10.714843-10.652344 10.976562h-.695312c-.183594 0-.367188-.003906-.554688-.007812h-.03125c-.007812 0-2.160156-.148438-2.523437-.199219-11.933594-1.84375-20.160156-11.4375-20.160156-23.066406v-46.542969c0-12.855469 10.417968-23.273437 23.269531-23.273437zm0 0" fill="#080b36"/><path d="m46.546875 116.363281h1.277344c6.425781.007813 11.632812 5.222657 11.625 11.648438-.007813 6.417969-5.207031 11.617187-11.625 11.625h-1.277344v46.546875c6.453125.417968 11.445313 5.828125 11.34375 12.296875-.089844 5.898437-4.757813 10.710937-10.652344 10.972656h-.695312c-.183594 0-.367188 0-.554688-.003906h-.03125c-.007812 0-2.160156-.152344-2.523437-.199219-11.933594-1.847656-20.160156-11.441406-20.160156-23.066406v-46.546875c0-12.851563 10.417968-23.273438 23.269531-23.273438zm0 0" fill="#080b36"/><path d="m46.546875 209.453125h1.277344c6.425781 0 11.636719 5.210937 11.636719 11.636719 0 6.425781-5.210938 11.636718-11.636719 11.636718h-1.277344v46.546876c6.453125.417968 11.445313 5.828124 11.34375 12.296874-.089844 5.898438-4.757813 10.710938-10.652344 10.972657h-.695312c-.183594 0-.367188 0-.554688-.003907h-.03125c-.007812 0-2.160156-.152343-2.523437-.199218-11.933594-1.84375-20.160156-11.441406-20.160156-23.066406v-46.546876c0-12.851562 10.417968-23.273437 23.269531-23.273437zm0 0" fill="#080b36"/><path d="m46.546875 302.546875h1.277344c6.425781 0 11.636719 5.207031 11.636719 11.632813 0 6.429687-5.210938 11.636718-11.636719 11.636718h-1.277344v46.550782c6.453125.414062 11.445313 5.824218 11.34375 12.292968-.089844 5.902344-4.757813 10.710938-10.652344 10.976563h-.695312c-.183594 0-.367188-.003907-.554688-.007813h-.03125c-.007812 0-2.160156-.152344-2.523437-.199218-11.933594-1.84375-20.160156-11.4375-20.160156-23.066407v-46.546875c0-12.851562 10.417968-23.269531 23.269531-23.269531zm0 0" fill="#080b36"/><path d="m46.546875 395.636719h1.277344c6.425781 0 11.636719 5.207031 11.636719 11.636719 0 6.425781-5.210938 11.636718-11.636719 11.636718h-1.277344v46.546875c6.453125.414063 11.445313 5.824219 11.34375 12.292969-.089844 5.902344-4.757813 10.714844-10.652344 10.976562h-.695312c-.183594 0-.367188-.003906-.554688-.007812h-.03125c-.007812 0-2.160156-.148438-2.523437-.199219-11.933594-1.84375-20.160156-11.4375-20.160156-23.066406v-46.542969c0-12.855468 10.417968-23.273437 23.269531-23.273437zm0 0" fill="#080b36"/><path d="m58.183594 93.089844h186.179687c6.425781 0 11.636719 5.210937 11.636719 11.636718 0 6.425782-5.210938 11.636719-11.636719 11.636719h-186.179687c-6.429688 0-11.636719-5.210937-11.636719-11.636719 0-6.425781 5.207031-11.636718 11.636719-11.636718zm0 0" fill="#080b36"/><path d="m58.183594 186.183594h186.179687c6.425781 0 11.636719 5.207031 11.636719 11.632812 0 6.429688-5.210938 11.636719-11.636719 11.636719h-186.179687c-6.429688 0-11.636719-5.207031-11.636719-11.636719 0-6.425781 5.207031-11.632812 11.636719-11.632812zm0 0" fill="#080b36"/><path d="m58.183594 279.273438h186.179687c6.425781 0 11.636719 5.207031 11.636719 11.636718 0 6.425782-5.210938 11.632813-11.636719 11.632813h-186.179687c-6.429688 0-11.636719-5.207031-11.636719-11.632813 0-6.425781 5.207031-11.636718 11.636719-11.636718zm0 0" fill="#1e2147"/><path d="m58.183594 372.363281h186.179687c6.425781 0 11.636719 5.210938 11.636719 11.636719s-5.210938 11.636719-11.636719 11.636719h-186.179687c-6.429688 0-11.636719-5.210938-11.636719-11.636719s5.207031-11.636719 11.636719-11.636719zm0 0" fill="#080b36"/><path d="m58.183594 465.453125h186.179687c6.425781 0 11.636719 5.210937 11.636719 11.636719 0 6.425781-5.210938 11.636718-11.636719 11.636718h-186.179687c-6.429688 0-11.636719-5.210937-11.636719-11.636718 0-6.425782 5.207031-11.636719 11.636719-11.636719zm0 0" fill="#080b36"/><path d="m372.363281 23.273438h93.089844c12.855469 0 23.273437 10.417968 23.273437 23.273437 0 12.851563-10.417968 23.273437-23.273437 23.273437h-93.089844c-12.851562 0-23.273437-10.421874-23.273437-23.273437 0-12.855469 10.421875-23.273437 23.273437-23.273437zm0 0" fill="#999aac"/><path d="m372.363281 244.363281c0-6.425781 5.210938-11.636719 11.636719-11.636719h69.816406c6.429688 0 11.636719 5.210938 11.636719 11.636719s-5.207031 11.636719-11.636719 11.636719h-69.816406c-6.425781 0-11.636719-5.210938-11.636719-11.636719zm0 0" fill="#1e2147"/><path d="m372.363281 221.089844c0-6.425782 5.210938-11.636719 11.636719-11.636719h69.816406c6.429688 0 11.636719 5.210937 11.636719 11.636719 0 6.425781-5.207031 11.636718-11.636719 11.636718h-69.816406c-6.425781 0-11.636719-5.210937-11.636719-11.636718zm0 0" fill="#7c7f95"/><path d="m372.363281 151.273438c0-6.425782 5.210938-11.636719 11.636719-11.636719h69.816406c6.429688 0 11.636719 5.210937 11.636719 11.636719 0 6.425781-5.207031 11.636718-11.636719 11.636718h-69.816406c-6.425781 0-11.636719-5.210937-11.636719-11.636718zm0 0" fill="#7c7f95"/><path d="m372.363281 174.546875c0-6.429687 5.210938-11.636719 11.636719-11.636719h69.816406c6.429688 0 11.636719 5.207032 11.636719 11.636719 0 6.425781-5.207031 11.636719-11.636719 11.636719h-69.816406c-6.425781 0-11.636719-5.210938-11.636719-11.636719zm0 0" fill="#1e2147"/><path d="m372.363281 197.816406c0-6.425781 5.210938-11.632812 11.636719-11.632812h69.816406c6.429688 0 11.636719 5.207031 11.636719 11.632812 0 6.429688-5.207031 11.636719-11.636719 11.636719h-69.816406c-6.425781 0-11.636719-5.207031-11.636719-11.636719zm0 0" fill="#4c4f6e"/><path d="m372.363281 384c0-6.425781 5.210938-11.636719 11.636719-11.636719h69.816406c6.429688 0 11.636719 5.210938 11.636719 11.636719s-5.207031 11.636719-11.636719 11.636719h-69.816406c-6.425781 0-11.636719-5.210938-11.636719-11.636719zm0 0" fill="#1e2147"/><path d="m372.363281 360.726562c0-6.425781 5.210938-11.636718 11.636719-11.636718h69.816406c6.429688 0 11.636719 5.210937 11.636719 11.636718 0 6.425782-5.207031 11.636719-11.636719 11.636719h-69.816406c-6.425781 0-11.636719-5.210937-11.636719-11.636719zm0 0" fill="#7c7f95"/><path d="m372.363281 290.910156c0-6.425781 5.210938-11.636718 11.636719-11.636718h69.816406c6.429688 0 11.636719 5.210937 11.636719 11.636718 0 6.425782-5.207031 11.636719-11.636719 11.636719h-69.816406c-6.425781 0-11.636719-5.210937-11.636719-11.636719zm0 0" fill="#7c7f95"/><path d="m372.363281 314.179688c0-6.425782 5.210938-11.632813 11.636719-11.632813h69.816406c6.429688 0 11.636719 5.207031 11.636719 11.632813 0 6.429687-5.207031 11.636718-11.636719 11.636718h-69.816406c-6.425781 0-11.636719-5.207031-11.636719-11.636718zm0 0" fill="#1e2147"/><path d="m81.453125 325.816406h23.273437c6.425782 0 11.636719 5.210938 11.636719 11.636719 0 6.429687-5.210937 11.636719-11.636719 11.636719h-23.273437c-6.425781 0-11.636719-5.207032-11.636719-11.636719 0-6.425781 5.210938-11.636719 11.636719-11.636719zm0 0" fill="#999aac"/><path d="m81.453125 418.910156h23.273437c6.425782 0 11.636719 5.207032 11.636719 11.636719 0 6.425781-5.210937 11.632813-11.636719 11.632813h-23.273437c-6.425781 0-11.636719-5.207032-11.636719-11.632813 0-6.429687 5.210938-11.636719 11.636719-11.636719zm0 0" fill="#999aac"/></svg>