<svg id="Capa_1" enable-background="new 0 0 482 482" height="512" viewBox="0 0 482 482" width="512" xmlns="http://www.w3.org/2000/svg"><g><g><g><path d="m452 403.892h-196v-106.086c0-8.284-6.716-15-15-15s-15 6.716-15 15v106.086h-196c-8.284 0-15 6.716-15 15s6.716 15 15 15h422c8.284 0 15-6.716 15-15s-6.716-15-15-15z" fill="#f9f2f2"/><path d="m452 403.892h-196v-106.086c0-8.284-6.716-15-15-15-.013 0-.025.002-.037.002v151.084h211.037c8.284 0 15-6.716 15-15s-6.716-15-15-15z" fill="#e7e2ee"/></g><g><circle cx="30" cy="418.892" fill="#3b5988" r="30"/><circle cx="452" cy="418.892" fill="#283c5b" r="30"/><g><circle cx="241" cy="418.892" fill="#3b5988" r="30"/><path d="m241 388.892c-.013 0-.025.001-.037.001v59.998c.012 0 .025.001.037.001 16.569 0 30-13.432 30-30s-13.431-30-30-30z" fill="#283c5b"/></g></g></g><g><g><path d="m73.978 133.607h334.044v85.727h-334.044z" fill="#71bda5"/><path d="m240.963 133.607h167.059v85.727h-167.059z" fill="#518f8d"/></g><g><g><g><path d="m68.366 315.557h345.269c16.568 0 30-13.431 30-30v-61.222c0-16.568-13.432-30-30-30h-345.269c-16.569 0-30 13.432-30 30v61.222c0 16.569 13.431 30 30 30z" fill="#3b5988"/><path d="m413.634 194.335h-172.671v121.222h172.672c16.569 0 30-13.431 30-30v-61.222c-.001-16.569-13.432-30-30.001-30z" fill="#283c5b"/></g><g><g fill="#e9d049"><path d="m273.17 269.303c-6.252 0-12.02-4.049-14.11-9.947-2.091-5.899-.261-12.668 4.6-16.644 4.858-3.973 11.833-4.478 17.221-1.27 5.365 3.195 8.243 9.668 6.999 15.79-1.408 6.93-7.621 12.071-14.71 12.071z"/><path d="m333.17 269.303c-6.251 0-12.02-4.05-14.11-9.947-2.094-5.907-.257-12.658 4.6-16.644 4.85-3.98 11.84-4.474 17.221-1.27 5.364 3.194 8.243 9.667 6.999 15.79-1.408 6.93-7.62 12.071-14.71 12.071z"/><path d="m393.18 269.303c-6.257 0-12.027-4.043-14.12-9.947-2.091-5.898-.259-12.67 4.6-16.644 4.858-3.973 11.833-4.478 17.221-1.27 5.364 3.194 8.243 9.668 6.999 15.79-1.407 6.923-7.615 12.071-14.7 12.071z"/></g><path d="m193.175 269.863h-104.249c-8.284 0-15-6.716-15-15s6.716-15 15-15h104.249c8.284 0 15 6.716 15 15s-6.716 15-15 15z" fill="#a5e1bd"/></g></g><g><g><path d="m68.366 154.33h345.269c16.568 0 30-13.432 30-30v-61.222c0-16.569-13.432-30-30-30h-345.269c-16.569 0-30 13.431-30 30v61.222c0 16.569 13.431 30 30 30z" fill="#3b5988"/><path d="m413.634 33.108h-172.671v121.222h172.672c16.569 0 30-13.432 30-30v-61.222c-.001-16.569-13.432-30-30.001-30z" fill="#283c5b"/></g><g><g fill="#e9d049"><path d="m273.17 108.072c-6.255 0-12.017-4.041-14.11-9.942-2.092-5.897-.26-12.674 4.6-16.647 4.857-3.971 11.833-4.479 17.221-1.27 5.362 3.193 8.251 9.678 6.999 15.8-1.418 6.93-7.617 12.059-14.71 12.059z"/><path d="m333.17 108.072c-6.396 0-12.228-4.215-14.23-10.289-1.964-5.961.074-12.721 5.051-16.562 4.535-3.5 10.801-4.102 15.923-1.537 5.77 2.889 9.105 9.413 8.065 15.785-1.172 7.179-7.53 12.603-14.809 12.603z"/><path d="m393.17 108.072c-6.255 0-12.017-4.041-14.11-9.942-2.092-5.897-.26-12.674 4.6-16.647 4.857-3.971 11.833-4.479 17.221-1.27 5.363 3.194 8.251 9.679 6.999 15.8-1.418 6.928-7.619 12.059-14.71 12.059z"/></g><path d="m193.175 107.863h-104.249c-8.284 0-15-6.716-15-15s6.716-15 15-15h104.249c8.284 0 15 6.716 15 15s-6.716 15-15 15z" fill="#a5e1bd"/></g></g></g></g></g></svg>