<?xml version="1.0" encoding="iso-8859-1"?>
<!-- Generator: Adobe Illustrator 19.0.0, SVG Export Plug-In . SVG Version: 6.00 Build 0)  -->
<svg version="1.1" id="Capa_1" xmlns="http://www.w3.org/2000/svg" xmlns:xlink="http://www.w3.org/1999/xlink" x="0px" y="0px"
	 viewBox="0 0 512 512" style="enable-background:new 0 0 512 512;" xml:space="preserve">
<g>
	<path style="fill:#35495E;" d="M141.241,0h229.517c19.501,0,35.31,15.809,35.31,35.31V476.69c0,19.501-15.809,35.31-35.31,35.31
		H141.241c-19.501,0-35.31-15.809-35.31-35.31V35.31C105.931,15.809,121.74,0,141.241,0z"/>
	<g>
		<path style="fill:#B0D3F0;" d="M379.586,35.31v61.793H132.414V35.31c0.015-4.869,3.958-8.813,8.828-8.828h28.954
			c3.81,0.028,7.181,2.476,8.386,6.091l2.737,8.298c2.42,7.21,9.167,12.075,16.772,12.094h115.818
			c7.605-0.019,14.352-4.884,16.772-12.094l2.737-8.298c1.205-3.615,4.576-6.063,8.386-6.091h28.954
			C375.628,26.497,379.572,30.441,379.586,35.31z"/>
		<path style="fill:#B0D3F0;" d="M379.586,397.241v79.448c-0.015,4.869-3.958,8.813-8.828,8.828H141.241
			c-4.869-0.015-8.813-3.958-8.828-8.828v-79.448H379.586z"/>
	</g>
	<rect x="132.414" y="97.103" style="fill:#90BAE1;" width="247.172" height="300.138"/>
	<path style="fill:#A5A5A4;" d="M300.138,35.31c-2.348,0.023-4.607-0.9-6.267-2.56c-1.66-1.66-2.583-3.919-2.56-6.267
		c0.033-2.337,0.947-4.576,2.56-6.268c3.539-3.267,8.995-3.267,12.534,0c3.414,3.481,3.414,9.054,0,12.534
		C304.712,34.36,302.474,35.275,300.138,35.31z"/>
	<path style="fill:#14A085;" d="M167.724,423.724h17.655c4.875,0,8.828,3.952,8.828,8.828v17.655c0,4.875-3.952,8.828-8.828,8.828
		h-17.655c-4.875,0-8.828-3.952-8.828-8.828v-17.655C158.897,427.676,162.849,423.724,167.724,423.724z"/>
	<path style="fill:#4482C3;" d="M220.69,423.724h17.655c4.875,0,8.828,3.952,8.828,8.828v17.655c0,4.875-3.952,8.828-8.828,8.828
		H220.69c-4.875,0-8.828-3.952-8.828-8.828v-17.655C211.862,427.676,215.814,423.724,220.69,423.724z"/>
	<path style="fill:#14A085;" d="M273.655,423.724h17.655c4.875,0,8.828,3.952,8.828,8.828v17.655c0,4.875-3.952,8.828-8.828,8.828
		h-17.655c-4.875,0-8.828-3.952-8.828-8.828v-17.655C264.828,427.676,268.78,423.724,273.655,423.724z"/>
	<path style="fill:#E6E7E8;" d="M326.621,423.724h17.655c4.875,0,8.828,3.952,8.828,8.828v17.655c0,4.875-3.952,8.828-8.828,8.828
		h-17.655c-4.875,0-8.828-3.952-8.828-8.828v-17.655C317.793,427.676,321.745,423.724,326.621,423.724z"/>
	<path style="fill:#4482C3;" d="M167.724,123.586h17.655c4.875,0,8.828,3.952,8.828,8.828v17.655c0,4.875-3.952,8.828-8.828,8.828
		h-17.655c-4.875,0-8.828-3.952-8.828-8.828v-17.655C158.897,127.538,162.849,123.586,167.724,123.586z"/>
	<path style="fill:#CB9080;" d="M220.69,123.586h17.655c4.875,0,8.828,3.952,8.828,8.828v17.655c0,4.875-3.952,8.828-8.828,8.828
		H220.69c-4.875,0-8.828-3.952-8.828-8.828v-17.655C211.862,127.538,215.814,123.586,220.69,123.586z"/>
	<path style="fill:#E6E7E8;" d="M273.655,123.586h17.655c4.875,0,8.828,3.952,8.828,8.828v17.655c0,4.875-3.952,8.828-8.828,8.828
		h-17.655c-4.875,0-8.828-3.952-8.828-8.828v-17.655C264.828,127.538,268.78,123.586,273.655,123.586z"/>
	<path style="fill:#4482C3;" d="M326.621,123.586h17.655c4.875,0,8.828,3.952,8.828,8.828v17.655c0,4.875-3.952,8.828-8.828,8.828
		h-17.655c-4.875,0-8.828-3.952-8.828-8.828v-17.655C317.793,127.538,321.745,123.586,326.621,123.586z"/>
	<path style="fill:#CB9080;" d="M167.724,185.379h17.655c4.875,0,8.828,3.952,8.828,8.828v17.655c0,4.875-3.952,8.828-8.828,8.828
		h-17.655c-4.875,0-8.828-3.952-8.828-8.828v-17.655C158.897,189.332,162.849,185.379,167.724,185.379z"/>
	<path style="fill:#E6E7E8;" d="M220.69,185.379h17.655c4.875,0,8.828,3.952,8.828,8.828v17.655c0,4.875-3.952,8.828-8.828,8.828
		H220.69c-4.875,0-8.828-3.952-8.828-8.828v-17.655C211.862,189.332,215.814,185.379,220.69,185.379z"/>
	<path style="fill:#14A085;" d="M273.655,185.379h17.655c4.875,0,8.828,3.952,8.828,8.828v17.655c0,4.875-3.952,8.828-8.828,8.828
		h-17.655c-4.875,0-8.828-3.952-8.828-8.828v-17.655C264.828,189.332,268.78,185.379,273.655,185.379z"/>
	<path style="fill:#4482C3;" d="M326.621,185.379h17.655c4.875,0,8.828,3.952,8.828,8.828v17.655c0,4.875-3.952,8.828-8.828,8.828
		h-17.655c-4.875,0-8.828-3.952-8.828-8.828v-17.655C317.793,189.332,321.745,185.379,326.621,185.379z"/>
	<path style="fill:#E6E7E8;" d="M167.724,247.172h17.655c4.875,0,8.828,3.952,8.828,8.828v17.655c0,4.875-3.952,8.828-8.828,8.828
		h-17.655c-4.875,0-8.828-3.952-8.828-8.828V256C158.897,251.125,162.849,247.172,167.724,247.172z"/>
	<path style="fill:#4482C3;" d="M220.69,247.172h17.655c4.875,0,8.828,3.952,8.828,8.828v17.655c0,4.875-3.952,8.828-8.828,8.828
		H220.69c-4.875,0-8.828-3.952-8.828-8.828V256C211.862,251.125,215.814,247.172,220.69,247.172z"/>
	<path style="fill:#14A085;" d="M273.655,247.172h17.655c4.875,0,8.828,3.952,8.828,8.828v17.655c0,4.875-3.952,8.828-8.828,8.828
		h-17.655c-4.875,0-8.828-3.952-8.828-8.828V256C264.828,251.125,268.78,247.172,273.655,247.172z"/>
	<path style="fill:#E6E7E8;" d="M326.621,247.172h17.655c4.875,0,8.828,3.952,8.828,8.828v17.655c0,4.875-3.952,8.828-8.828,8.828
		h-17.655c-4.875,0-8.828-3.952-8.828-8.828V256C317.793,251.125,321.745,247.172,326.621,247.172z"/>
	<path style="fill:#14A085;" d="M167.724,308.966h17.655c4.875,0,8.828,3.952,8.828,8.828v17.655c0,4.875-3.952,8.828-8.828,8.828
		h-17.655c-4.875,0-8.828-3.952-8.828-8.828v-17.655C158.897,312.918,162.849,308.966,167.724,308.966z"/>
	<path style="fill:#4482C3;" d="M220.69,308.966h17.655c4.875,0,8.828,3.952,8.828,8.828v17.655c0,4.875-3.952,8.828-8.828,8.828
		H220.69c-4.875,0-8.828-3.952-8.828-8.828v-17.655C211.862,312.918,215.814,308.966,220.69,308.966z"/>
	<path style="fill:#E6E7E8;" d="M273.655,308.966h17.655c4.875,0,8.828,3.952,8.828,8.828v17.655c0,4.875-3.952,8.828-8.828,8.828
		h-17.655c-4.875,0-8.828-3.952-8.828-8.828v-17.655C264.828,312.918,268.78,308.966,273.655,308.966z"/>
	<path style="fill:#CB9080;" d="M326.621,308.966h17.655c4.875,0,8.828,3.952,8.828,8.828v17.655c0,4.875-3.952,8.828-8.828,8.828
		h-17.655c-4.875,0-8.828-3.952-8.828-8.828v-17.655C317.793,312.918,321.745,308.966,326.621,308.966z"/>
	<path style="fill:#E6E7E8;" d="M273.655,379.586h-35.31c-4.875,0-8.828-3.952-8.828-8.828s3.952-8.828,8.828-8.828h35.31
		c4.875,0,8.828,3.952,8.828,8.828S278.531,379.586,273.655,379.586z"/>
	<g>
		<path style="fill:#2C3E50;" d="M176.552,79.448h-17.655c-4.875,0-8.828-3.952-8.828-8.828s3.952-8.828,8.828-8.828h17.655
			c4.875,0,8.828,3.952,8.828,8.828S181.427,79.448,176.552,79.448z"/>
		<path style="fill:#2C3E50;" d="M353.103,79.448h-17.655c-4.875,0-8.828-3.952-8.828-8.828s3.952-8.828,8.828-8.828h17.655
			c4.875,0,8.828,3.952,8.828,8.828S357.979,79.448,353.103,79.448z"/>
	</g>
</g>
<g>
</g>
<g>
</g>
<g>
</g>
<g>
</g>
<g>
</g>
<g>
</g>
<g>
</g>
<g>
</g>
<g>
</g>
<g>
</g>
<g>
</g>
<g>
</g>
<g>
</g>
<g>
</g>
<g>
</g>
</svg>
